<?xml version="1.0" standalone="no"?>
<!DOCTYPE svg PUBLIC "-//W3C//DTD SVG 1.1//EN" "http://www.w3.org/Graphics/SVG/1.1/DTD/svg11.dtd" >
<svg xmlns="http://www.w3.org/2000/svg">
<metadata></metadata>
<defs>
<font id="domestic_mannersregular" horiz-adv-x="2048" >
<font-face units-per-em="2048" ascent="1638" descent="-410" />
<missing-glyph horiz-adv-x="962" />
<glyph />
<glyph />
<glyph unicode="&#xd;" horiz-adv-x="477" />
<glyph unicode=" "  horiz-adv-x="962" />
<glyph unicode="&#x09;" horiz-adv-x="962" />
<glyph unicode="&#xa0;" horiz-adv-x="962" />
<glyph unicode="!" horiz-adv-x="473" d="M143 164q0 77 2 89q9 58 48 58q74 0 136 -52q64 -55 64 -128q0 -50 -29 -84.5t-79 -34.5q-51 0 -89 54q-27 49 -53 98zM238 815q0 66 14 208q2 71 14 210q13 93 13 123q0 22 -1.5 66.5t-1.5 66.5q0 127 39 199q125 -69 125 -374q0 -28 -1 -76.5t-1 -66.5q0 -10 -12 -49 q-13 -46 -15 -54q-19 -94 -30 -234q-8 -114 -41 -338q-102 116 -102 319z" />
<glyph unicode="&#x22;" horiz-adv-x="563" d="M91 1389q-3 35 54.5 63.5t57.5 54.5q0 11 -6 27q36 -7 57 -43q15 -34 31 -68l-60 -256l72 -20q-29 -127 -115 -195q-67 60 -67 156q0 49 57 242l-14 30q-6 -4 -19 -4q-18 0 -47 6zM426 1524q39 -15 73 -55q38 -43 37 -81q0 -8 -2 -25.5t-2 -27.5q0 -39 11.5 -115.5 t11.5 -115.5q0 -103 -63 -168q-56 57 -56 151q0 29 6.5 86.5t6.5 86.5q0 18 -7 48.5t-8 43.5z" />
<glyph unicode="#" horiz-adv-x="1675" d="M164 401q21 53 168 84q142 30 151 76l37 197q-26 -8 -59 -8q-46 0 -112 20q-72 21 -99 49q-76 77 -76 151q0 11 2 21q60 -37 168 -37h176q66 195 66 363q0 41 -4 80q30 47 77 47q19 0 33 -10q41 -101 41 -129q0 -31 -27.5 -96.5t-27.5 -100.5q0 -53 39 -92l442 74 q38 48 82 155q47 116 76 158q54 79 137 104l49 -49q-119 -190 -135 -319q50 -18 162 -16q107 1 158 -22q36 -17 61 -48q-62 -38 -222.5 -65.5t-219.5 -64.5q-99 -61 -99 -202l20 -1q47 -2 135 14q93 16 136 16q98 0 164 -54q-73 -59 -255 -110q-193 -56 -258 -99 q-120 -78 -126 -233q33 -23 33 -51q0 -22 -32 -66q-34 -48 -38 -67l-49 -13q-49 39 -49 93q0 37 25.5 109t25.5 110q0 16 -2 32q-272 0 -393 -135l37 -12l-160 -270q-20 0 -46 24q-36 34 -40 37q-4 16 -4 35q0 38 31 90q43 73 47 84q-35 22 -105 30t-93 22q-42 24 -48 95z M614 586q0 -29 17 -49l368 122q68 113 68 172q0 21 -6 37l-418 -110l1 -19q2 -27 -14 -78t-16 -75z" />
<glyph unicode="$" horiz-adv-x="860" d="M73 165q0 74 101 107q171 56 244 54l-49 -62q14 -20 45 -22q27 -1 53 -2q22 16 27 45q0 -3 -1 -3l-1 8v8v40q-198 169 -203 174q-115 118 -115 225q0 54 10 80q64 164 357 270l37 308q54 0 75 -44q5 -11 23 -91q-25 -48 -25 -80q0 -57 113 -83t113 -57q0 -34 -54 -100 q-18 2 -35 2q-108 0 -137 -88q19 -31 19 -76q0 -44 -23.5 -130t-23.5 -130q0 -106 151 -106q78 -54 78 -152q0 -100 -81 -133q-75 -18 -151 -36q-81 -25 -81 -108q0 -3 1 -12.5t1 -13.5l-13 -197q-14 -6 -24 -6q-19 0 -37 26q-12 21 -25 42l25 221q-35 18 -94 18 q-26 0 -77 -5t-77 -5q-59 0 -99 27q-47 31 -47 87zM319 645q39 -29 77 -58q52 -36 85 -36q19 0 35 8l25 295h-62q-51 -45 -102 -91q-58 -58 -58 -118z" />
<glyph unicode="%" horiz-adv-x="1538" d="M231 999q0 139 148 272q144 130 285 130q76 0 158 -59q42 -31 128 -117q16 -100 124 -142q103 -30 207 -60q121 -43 161 -142q-209 -115 -510 -392q-237 -228 -473 -456q-45 15 -57 79q-5 27 -5 105q237 226 725 664q-22 21 -115 41q-81 18 -106 69l-210 -160 q-143 -96 -232 -96q-91 0 -161 88q-67 83 -67 176zM389 997q0 -102 107 -102q78 0 175 64q107 72 107 151q0 41 -24 90q-31 19 -78 19q-94 0 -186 -63q-101 -70 -101 -159zM952 258q0 44 23 82q104 170 317 170q108 0 192 -53q35 -23 67 -62q38 -46 38 -80 q0 -138 -102.5 -233.5t-241.5 -95.5q-117 0 -203 77q-90 79 -90 195zM1118 240q0 -121 156 -121q76 0 130 55t54 131q0 15 -2 31q-125 41 -164 41q-66 0 -117 -35q-57 -40 -57 -102z" />
<glyph unicode="&#x26;" horiz-adv-x="1061" d="M86 758q0 28 16 43q6 6 53 34q181 105 365 105q86 0 160 -29q31 100 104 228q64 107 129 215q8 2 15 2q34 0 84 -76q-5 -85 -90.5 -241t-87.5 -226q104 -39 163 -132q56 -90 56 -204q0 -152 -101 -293q-92 -129 -235 -207q-221 0 -221 171q0 133 43 298q21 80 92 289 q-47 35 -101 35q-55 0 -168.5 -61.5t-166.5 -61.5q-23 0 -43 6q-66 79 -66 105zM635 233q0 -36 8 -71q174 154 175 155q97 103 97 201q0 148 -137 148l-92 -212q-51 -130 -51 -221z" />
<glyph unicode="'" horiz-adv-x="334" d="M91 1389q-3 35 54.5 63.5t57.5 54.5q0 11 -6 27q36 -7 57 -43q15 -34 31 -68l-60 -256l72 -20q-29 -127 -115 -195q-67 60 -67 156q0 49 57 242l-14 30q-6 -4 -19 -4q-18 0 -47 6z" />
<glyph unicode="(" horiz-adv-x="799" d="M164 401q0 162 84 377q129 331 143 348q102 123 307 369l14 1q42 3 68 -53q14 -47 29 -95q-59 -41 -64 -45q-34 -31 -34 -66q-158 -150 -263 -363q-82 -165 -155 -423q-12 -42 -12 -78q0 -162 171 -232q93 -38 308 -59q-74 -123 -144 -123q-24 0 -41 25q-20 -41 -43 -41 q-6 0 -18 4l-25 37q-18 -13 -40 -13q-60 0 -144 74q-67 59 -106 163q-35 96 -35 193z" />
<glyph unicode=")" horiz-adv-x="715" d="M176 1434l25 110q10 4 20 4q28 0 56 -32q81 -184 184 -412q104 -224 151 -363q70 -208 70 -368q0 -257 -162 -451q-33 -39 -67 -39t-85 37q-60 44 -81 51q-8 9 -8 21q0 23 18 47t39 31q29 -25 55 -25q37 0 80 59q24 30 61 89q33 71 33 213q0 160 -79 354q-34 83 -165 337 q-107 208 -145 337z" />
<glyph unicode="*" horiz-adv-x="1092" d="M86 1214q25 57 88 78q19 6 121 21q-8 21 -57 72q-42 43 -42 77l1 11q85 -7 196 -104q125 -110 185 -130q53 53 53 176q0 25 -3 74t-3 74q0 26 2 45q114 0 159 -111q-2 -14 -2 -29q0 -33 15 -78q12 -39 24 -77q26 5 94 34q58 25 95 25q57 0 82 -72l-136 -110q9 -24 91 -72 q75 -43 75 -84q0 -12 -6 -28q-86 73 -307 73l307 -258v-49q-84 24 -196 100q-159 107 -185 121q-49 -159 -61 -245q11 0 33 -13.5t39 -13.5q7 0 14 2q1 -8 1 -14q0 -47 -87 -47q-49 0 -96 36q-51 38 -52 86v111h-9q-46 1 -149 -54t-151 -55q-72 0 -121 84l308 209 q-28 20 -178 42q-116 17 -142 93z" />
<glyph unicode="+" horiz-adv-x="1231" d="M66 668q0 53 81 86q65 18 129 37l271 -62q60 61 107.5 222t101.5 220q16 5 28 5q37 0 64 -50q38 -72 43 -77q-21 -41 -50 -156q-26 -102 -61 -152q60 -51 166 -51q25 0 75 4t75 4q143 0 176 -129q-68 -53 -156 -53q-49 0 -145.5 21.5t-145.5 21.5t-94 -14 q-26 -27 -26 -68q0 -32 20 -92.5t20 -91.5q0 -60 -75 -80q-65 53 -84 179q-23 147 -51 190q-13 2 -31 2q-45 0 -134 -17.5t-134 -17.5q-62 0 -111 28q-59 33 -59 91z" />
<glyph unicode="," horiz-adv-x="565" d="M63 -373q0 15 37 50q42 39 50 61q60 145 120 289q66 176 66 301q0 63 -14 123q147 -115 147 -357q0 -12 -20 -97q-73 -314 -238 -480q-12 -4 -27 -4q-80 0 -96 65q-25 29 -25 49z" />
<glyph unicode="-" horiz-adv-x="1018" d="M49 731q43 23 74 23q41 0 74 -35q17 -1 37 -1q98 0 288.5 41.5t286.5 41.5q143 0 235 -82v-62l-36 -49q-64 10 -134 10q-114 0 -338 -43t-337 -43q-33 0 -64 3q-39 26 -60 88q-2 8 -26 108z" />
<glyph unicode="." horiz-adv-x="430" d="M119 131q0 87 107 129q29 12 34 12q62 0 86 -36q0 -49 -33 -125q-51 -116 -53 -121q-16 -15 -33 -15q-21 0 -49 36q-36 48 -41 52q-18 35 -18 68z" />
<glyph unicode="/" horiz-adv-x="963" d="M35 57q0 76 102 188q132 146 148 175q78 142 280 576q169 363 297 567q45 0 75 -31q5 -6 48 -68q-100 -171 -255 -492q-171 -355 -249 -498q-150 -272 -307 -460q-38 -24 -111 -49q-28 47 -28 92z" />
<glyph unicode="0" horiz-adv-x="1143" d="M84 98q0 118 94 303q54 99 160 299q22 48 70 142q53 94 110 94q51 0 103 -88q37 6 161 45q100 31 164 31q107 0 172 -86q60 -78 60 -189q0 -100 -62 -184q-269 -363 -803 -477q-99 -21 -123 -21q-106 0 -106 131zM289 197q327 41 565 209q195 137 195 253q0 111 -103 111 q-48 0 -125 -25q-198 -65 -322 -217q-33 -41 -210 -331z" />
<glyph unicode="1" horiz-adv-x="1452" d="M240 575q0 101 57 150q34 29 348 149q225 86 340 158q80 -65 80 -168q0 -88 -65.5 -257t-65.5 -259q0 -47 14 -90q23 -1 50 -1q40 0 119.5 4.5t119.5 4.5q141 0 256 -57q-118 -100 -250 -119q-114 -6 -295 -29q-41 -10 -62.5 -94.5t-60.5 -89.5q-28 111 -110 111 q-39 0 -114 -25.5t-114 -25.5q-34 0 -67 39.5t-33 74.5q0 54 82 77q86 25 171 49q105 44 144 142q24 60 31 218q6 143 47 213q-128 -24 -294 -121q-135 -87 -271 -174q-57 28 -57 120z" />
<glyph unicode="2" horiz-adv-x="1184" d="M63 922q48 119 253 180q153 45 325 45q483 0 483 -375q0 -131 -78 -285q-43 -84 -159 -254q131 -14 163 -22q90 -24 132 -88q-27 -94 -103 -94q-45 0 -134 29.5t-136 29.5q-80 0 -210.5 -100.5t-174.5 -100.5q-72 0 -78 174q391 197 602 627q49 100 49 197 q-123 80 -284 80q-126 0 -271 -49q-58 -20 -256 -105q-3 -1 -13 -1q-34 0 -65 42q-23 35 -45 70z" />
<glyph unicode="3" horiz-adv-x="1233" d="M213 983q68 176 338 176q124 0 245 -43q148 -53 191 -145q8 -17 8 -31q0 -52 -100 -150q-138 -134 -141 -139q102 -37 205 -74q128 -52 194 -113q86 -81 86 -190q0 -153 -154 -225q-116 -53 -290 -53q-125 0 -233 34q-138 44 -189 130q-13 22 -13 43q0 43 74 43 q12 0 63 -17q62 -20 70 -22q162 -39 316 -39q180 0 180 113q0 91 -195 147q-237 68 -348 88q-44 8 -71 49q-25 38 -25 86q0 34 22 49l345 234q-79 37 -187 37q-182 0 -280 -86q-8 -2 -16 -2q-37 0 -66 31.5t-29 68.5z" />
<glyph unicode="4" horiz-adv-x="987" d="M170 758q0 192 190 401q-57 84 -57 113q0 49 53 49q52 0 91.5 -44t39.5 -97q0 -57 -91 -218.5t-91 -228.5q0 -125 172 -125q76 0 162 23q16 65 16 310q0 153 25 243q18 14 37 14q25 0 49.5 -31t24.5 -57v-418l122 -4q71 -10 99 -57q-13 -64 -81 -104q-58 -34 -116 -69 q-59 -49 -59 -141q0 -54 28.5 -149.5t28.5 -128.5q0 -47 -72 -47q-64 0 -96 90q-13 37 -16 95q-2 39 0 107q3 75 3 99l-1 27h-33q-428 -7 -428 348z" />
<glyph unicode="5" horiz-adv-x="1571" d="M150 332l61 37q44 -84 140 -136q54 -29 184 -71q46 -15 88 -15q100 0 182 74.5t82 173.5q0 88 -143 88q-41 0 -122.5 -8.5t-122.5 -8.5q-106 0 -106 52q0 39 49 254l64 272q83 14 377 103q234 70 383 70q233 0 370 -173q-84 13 -174 13q-399 0 -817 -209 q-25 -74 -53 -197q16 -2 35 -2q26 0 78.5 7.5t78.5 7.5q244 0 244 -242q0 -182 -98 -309q-107 -138 -283 -138q-168 0 -315 95q-162 104 -182 262z" />
<glyph unicode="6" horiz-adv-x="1272" d="M145 270q0 178 203 510q18 30 318 469q110 1 123 -49q-28 -112 -113 -259q-73 -123 -145 -245q122 17 210 17q294 0 392 -164q30 -50 30 -100q0 -173 -293 -312q-251 -119 -448 -119q-125 0 -198 62q-79 66 -79 190zM330 242q0 -8 4 -13q566 42 676 258q-99 52 -232 52 q-150 0 -240 -41q-104 -47 -171 -165q-37 -65 -37 -91z" />
<glyph unicode="7" horiz-adv-x="1591" d="M152 983q0 70 88 104q60 24 270 50q195 24 287 24q104 0 225 -24q148 -30 207 -79.5t59 -160.5q0 -104 -84 -295q84 -7 167 -13q112 -12 177 -39q87 -37 111 -108q-78 37 -195 37q-106 0 -266 -37q-209 -49 -252 -233q51 -11 53 -12q16 -10 15 -50q-160 -133 -234 -133 q-40 0 -65 32t-25 73q0 71 139 235q-14 4 -36 4q-23 0 -70 -5t-70 -5q-114 0 -114 112q0 15 2 32q264 49 405 61q121 145 134 165q72 100 87 191q-135 72 -350 72q-307 0 -571 -121q-94 0 -94 123z" />
<glyph unicode="8" horiz-adv-x="1108" d="M248 709q0 116 190 245q160 109 330 109q88 0 162 -35q16 34 55 58t76 24q80 0 80 -118q0 -128 -75 -270q-82 -154 -192 -198q83 -77 96 -93q42 -53 42 -124q0 -34 -6 -65q-20 -101 -157 -180q-124 -72 -237 -72q-111 0 -197 61q-96 68 -96 174q0 135 168 250 q-239 53 -239 234zM463 702q73 -81 213 -81q58 0 69 2q79 13 145 72.5t89 135.5q-78 21 -166 21q-244 0 -350 -150zM487 242q93 -92 189 -92q70 0 141.5 57.5t71.5 126.5q0 39 -55 64q-44 14 -89 28q-202 -86 -258 -184z" />
<glyph unicode="9" horiz-adv-x="1188" d="M127 872q0 38 12 74q97 291 500 291q283 0 283 -104q0 -22 -22 -61t-23 -52q-109 27 -242 27q-330 0 -330 -154q0 -94 160 -94q133 0 301 49q106 31 210 169q113 152 183 187q68 -59 68 -121q0 -51 -83 -164.5t-83 -168.5q0 -330 -160 -787q-14 -6 -24 -6q-14 0 -27 18 q-16 21 -23 25q-16 68 -16 145q0 112 43 297q51 215 59 295q-78 -5 -250 -52q-160 -44 -251 -44q-116 0 -196 56q-89 63 -89 175z" />
<glyph unicode=":" horiz-adv-x="369" d="M101 95q0 54 34 102q38 53 90 53q13 0 25 -4q14 -43 14 -84q0 -96 -76 -150q-8 -2 -15 -2q-24 0 -71 64q-1 10 -1 21zM121 928q0 87 107 129q29 12 34 12q62 0 86 -37q0 -50 -33 -125q-49 -109 -53 -121q-16 -14 -33 -14q-21 0 -49 36q-36 48 -41 52q-18 35 -18 68z" />
<glyph unicode=";" horiz-adv-x="487" d="M76 -270q0 43 55 55q69 16 98 68q27 47 41 142q16 105 31 144q-8 20 -8 39q0 37 26 69t62 32q47 0 47 -66q0 -15 -4 -37q-44 -243 -66 -313q-56 -177 -168 -264q-32 0 -61 24l-49 49q0 9 -2 28.5t-2 29.5zM248 778q0 64 39 143q45 91 100 91q28 -32 30 -75q-3 66 -3 -83 q0 -59 47 -88q-88 -88 -133 -88q-34 0 -58 34q-22 31 -22 66z" />
<glyph unicode="&#x3c;" horiz-adv-x="1012" d="M53 856q119 111 316 236l237 151q30 23 86 55q19 7 37 7q44 0 69 -58q3 -6 29 -96q-75 -88 -279 -192q-210 -108 -286 -189q131 -156 351 -327q193 -144 386 -287q30 -23 36 -68q0 -40 1 -80q-303 133 -823 627q-96 22 -131 73q-33 47 -29 148z" />
<glyph unicode="=" horiz-adv-x="842" d="M20 907q134 45 349 45q39 0 401 -20l86 -74q0 -111 -50 -111q-5 0 -64.5 15.5t-98.5 15.5q-72 0 -214 -28t-215 -28q-128 0 -181 87zM82 378v13q24 43 49 62q258 79 365 79q109 0 237 -67q-25 -54 -141 -71q-137 -19 -166 -40q-14 6 -31 6q-42 0 -130 -40.5t-124 -40.5 q-61 0 -59 99z" />
<glyph unicode="&#x3e;" horiz-adv-x="1032" d="M113 168q215 148 761 602q-89 71 -249 125q-134 44 -268 89q-148 60 -232 155l-12 110h49q101 -88 310 -161q293 -102 337 -123q177 -85 250 -220l-25 -98q-100 -95 -379 -314q-246 -194 -370 -325q-17 0 -45 -15.5t-41 -15.5q-41 0 -64 78q-5 14 -22 113z" />
<glyph unicode="?" horiz-adv-x="1094" d="M104 1432q172 114 471 114q198 0 383 -43q70 -16 118.5 -76.5t48.5 -131.5q0 -105 -91 -224q-85 -99 -170 -199q-92 -116 -92 -215q0 -30 8 -61q-12 -61 -106 -61t-94 98q0 95 184.5 350t184.5 316q0 81 -242 81q-325 0 -517 -96zM590 170q0 48 85 58q99 11 120 40 q65 -43 65 -110q0 -68 -65 -148q-29 -8 -58 -8q-71 0 -100 25.5t-39 93.5q-8 56 -8 49z" />
<glyph unicode="@" horiz-adv-x="1786" d="M98 694q0 148 60 279q150 327 504 534q341 199 711 199q214 0 358 -176q135 -166 135 -385q0 -180 -103 -301q23 -53 23 -115q0 -188 -205 -405q-174 -183 -377 -283q-216 -106 -440 -106q-35 0 -64 2q-255 19 -435 264q-167 228 -167 493zM274 643q0 -207 122 -366 q133 -173 334 -173q262 0 520 166q218 140 403 377q-320 -270 -627 -270q-157 0 -263 68q-124 81 -124 229q0 144 122 235q110 82 259 82q113 0 203 -37q49 148 49 357q-154 -119 -357 -160q-55 20 -67 83l-6 114q30 8 255 97q159 62 261 62q63 -110 63 -260 q0 -81 -23.5 -242.5t-23.5 -242.5q0 -47 4 -88q10 -2 19 -2q100 0 209 161q118 174 118 338q0 145 -84 262q-90 124 -229 144q-42 6 -88 6q-209 0 -459 -123.5t-377 -288.5q-213 -277 -213 -528zM803 641q0 -41 80 -69q64 -23 116 -23q76 0 144 30q86 39 86 105q0 62 -50 98 q-44 31 -108 31q-75 0 -165 -48q-103 -56 -103 -124z" />
<glyph unicode="A" horiz-adv-x="1577" d="M168 98q11 28 124 233q77 141 85 247q58 8 97 75q9 17 50 121l-49 62q131 88 303 348q174 264 299 352q94 -84 122 -278l22 -316l16 -205q21 2 115 14q71 9 116 9q93 0 174 -35q-19 -66 -109 -100q-52 -19 -176 -38q-111 -16 -143 -34q0 -201 -26 -295q65 -27 65 -80 q0 -40 -24 -74q-26 -38 -64 -38q-76 0 -76 255q0 38 2 90t2 58q0 52 2 30q-2 16 -17 16q-67 0 -243 -41q-208 -49 -262 -56l-307 -418q-32 0 -58 36zM770 664l270 24q60 5 60 135q0 72 -23.5 215.5t-23.5 214.5z" />
<glyph unicode="B" horiz-adv-x="1155" d="M131 11q0 97 133 651q101 419 101 669q0 96 -13 185q391 0 570 -130q213 -155 213 -360q0 -219 -185 -299q77 -61 134 -148q67 -102 67 -184q0 -184 -213 -303q-181 -102 -380 -102q-34 0 -100.5 11t-99.5 11q-108 0 -137 -121q-35 7 -62.5 45t-27.5 75zM346 193h6h9 q38 0 103 -15q73 -17 109 -17q121 0 256 80q152 90 152 201q0 101 -105 157q-85 46 -194 46q-21 0 -123 -5q-33 -1 -60 -1q-36 0 -63 2zM463 856q86 -37 184 -37q120 0 216 42q126 55 126 159q0 179 -170 271q-133 72 -330 77q15 -92 15 -178q0 -82 -41 -334z" />
<glyph unicode="C" horiz-adv-x="1288" d="M279 645q0 287 127 480q148 223 421 223q90 0 157 -21q99 -31 99 -97q0 -91 -108 -91q-29 0 -86 7t-86 7q-153 0 -257 -133q-92 -119 -102 -279q-2 -36 -2 -75q0 -129 27 -267q37 -189 106 -223q29 -14 64 -14q65 0 280.5 113.5t319.5 113.5q94 0 94 -47q0 -10 -4 -18 q-86 -26 -371 -192q-249 -144 -346 -144q-133 0 -254 262q-79 172 -79 395z" />
<glyph unicode="D" horiz-adv-x="1450" d="M197 129l131 37q67 153 67 381q0 108 -24 331q-23 209 -23 322v9v14l135 -49q6 22 6 49q0 43 -27.5 125.5t-27.5 126.5q0 34 12 67q75 -6 189 -54q133 -57 184 -69q213 -48 293 -96q172 -102 267 -366q79 -220 79 -459q0 -521 -381 -521q-61 0 -181 24t-181 24 q-142 0 -285 -80q-73 21 -141 67q-84 58 -92 117zM504 154q74 16 155 16q53 0 159 -11.5t159 -11.5q185 0 264 91q74 84 74 272q0 129 -31 268q-63 283 -232 395q-102 67 -440 150q25 -100 25 -231q0 -182 -54 -471q-68 -361 -79 -467z" />
<glyph unicode="E" horiz-adv-x="1333" d="M152 4q172 90 172 385q0 127 -34 380.5t-34 381.5q0 21 3 64t3 64q0 42 37 67q32 22 76 22q88 0 96 -74q129 0 385 50t387 50q138 0 138 -83q0 -7 -13 -78q-57 14 -123 14q-121 0 -357.5 -70.5t-358.5 -70.5q-36 0 -70 4q-35 -45 -35 -131q0 -17 16 -199q45 -10 101 -10 q63 0 188.5 16.5t188.5 16.5q151 0 241 -74q-113 -51 -358 -80.5t-355 -79.5l13 -393q362 76 520 76q147 0 266 -39q0 -50 -59 -70q-26 -8 -101 -16q-300 -31 -427 -59q-235 -51 -396 -162q-48 0 -110 98z" />
<glyph unicode="F" horiz-adv-x="1196" d="M168 35q194 667 194 1259q0 55 37 74q79 -16 251 -17q200 -1 274 -9q148 -17 225 -72q-71 -81 -265 -81q-32 0 -90 2.5t-81 2.5q-146 0 -228 -47v-393q281 94 447 94q158 0 303 -70v-49q-369 -14 -799 -209q-18 -64 -27 -197q-8 -125 -28 -185q-32 -96 -117 -158z" />
<glyph unicode="G" horiz-adv-x="1419" d="M193 369q0 294 240 614q194 258 487 467l110 -12q-49 -133 -232 -349q-273 -323 -299 -359q-149 -205 -149 -351q0 -223 201 -223q73 0 147 28q498 188 676 541q-80 16 -166 16q-247 0 -399 -114q-41 7 -76 37q-39 34 -39 73q0 37 51 68q3 2 89 31q203 69 346 69 q204 0 293 -143l1 -26v-11q0 -161 -166 -352q-133 -154 -315 -273q-207 -135 -385 -135q-163 0 -289 120.5t-126 283.5z" />
<glyph unicode="H" horiz-adv-x="1094" d="M90 68q0 31 84 311q67 223 94 474q9 89 33 490q14 11 33 11q30 0 67 -34t35 -63l-49 -577q70 3 209 14q141 17 172 97q11 28 33 213q16 142 32 208q27 118 82 193q13 4 19 4q49 0 67 -53l-86 -578q116 -30 122 -32q72 -27 87 -78q-36 -36 -118 -56q-44 -8 -123 -34 q-65 -33 -78 -107q-43 -252 -49 -418l80 17q2 -9 2 -18q0 -45 -32 -90q-34 -50 -77 -50q-94 0 -94 197q0 157 55 419q-18 2 -39 2q-56 0 -151 -20q-109 -23 -150 -27q-42 -109 -110 -331q36 -27 36 -74q0 -45 -36 -74h-111q-39 0 -39 64z" />
<glyph unicode="I" horiz-adv-x="1206" d="M63 80q24 53 102 65l134 14q70 16 84 81q4 40 16 119q21 112 72 284q70 235 70 387q0 64 -9 129q-8 -2 -60 -16q-36 -10 -60 -10q-77 0 -77 101q0 11 1 23q409 187 631 187q159 0 278 -76q-68 -40 -290 -79q-199 -34 -275 -105q-20 -213 -77 -487q-6 -28 -109 -482 q57 -36 172 -44q92 -2 184 -5q-66 -154 -324 -154q-21 0 -63.5 2.5t-63.5 2.5q-39 0 -115 -15.5t-114 -15.5q-80 0 -107 94z" />
<glyph unicode="J" horiz-adv-x="1380" d="M113 262q0 58 75 93q60 28 125 28q54 0 123 -14l-164 -111q252 -125 404 -125q104 0 178 51q8 64 8 131q0 273 -168 754l-14 1h-7q-39 0 -106 -18q-74 -20 -110 -20q-40 0 -73.5 29t-33.5 69q0 74 142 97q170 27 202 63q56 -8 117 -8q64 0 191.5 12.5t191.5 12.5 q133 0 238 -41q-87 -75 -283 -106q-219 -35 -295 -79v-18v-9q0 -132 55 -375q58 -255 58 -382q0 -162 -64 -297q-82 -20 -184 -20q-316 0 -516 155q-90 70 -90 127z" />
<glyph unicode="K" horiz-adv-x="1137" d="M121 35q90 181 134 418q33 179 48 443q10 220 21 441q18 15 41 15q56 0 77 -60q0 -625 -28 -829q220 218 303 315q155 183 237 365q42 94 133 94q13 0 27 -2q57 -43 57 -103v-6q-58 -67 -277 -375q-176 -249 -292 -345q20 -65 62 -125q54 -76 106 -76q44 0 131 31.5 t133 31.5q92 0 92 -92q0 -63 -108 -102q-84 -31 -164 -31q-100 0 -173 45q-26 16 -106 88q-59 54 -112 66q-68 -108 -197 -328z" />
<glyph unicode="L" horiz-adv-x="946" d="M74 18q0 20 86 256q52 142 71 261q21 129 39 536q4 99 11 153q16 128 47 132q10 6 22 6q43 0 88 -92q-4 -26 -16 -180l-27 -357q-26 -342 -100 -518q31 -6 67 -6q60 0 177.5 18.5t177.5 18.5q171 0 241 -117q9 -15 9 -31q0 -40 -33 -72t-74 -32q-53 0 -60 42 q-12 77 -14 81q-49 10 -102 10q-125 0 -299 -64q-238 -87 -257 -87q-54 0 -54 42z" />
<glyph unicode="M" horiz-adv-x="1415" d="M70 72q0 75 76 233q101 210 110 236q88 256 88 446q0 96 -20 189q19 28 43 28q17 0 43 -16q13 -33 49 -74q46 112 52 125q37 80 71 109q108 -70 145 -251q19 -151 39 -302q22 -122 74 -332q91 125 216 433q120 295 226 427q16 8 31 8q37 0 72 -54q32 -49 32 -89 q0 1 -28 -166q-111 -672 -111 -981q0 -74 4 -143l-86 36q-22 115 -22 238q0 127 37 389q34 243 34 375v14v29q-33 -69 -98 -273q-58 -183 -111 -273q-81 -136 -209 -191q-72 147 -138 357q-53 184 -107 368q-55 -115 -115 -336q-71 -263 -99 -342q-76 -217 -167 -305 q-26 -25 -51 -25q-37 0 -60 40q-20 34 -20 73z" />
<glyph unicode="N" horiz-adv-x="1372" d="M74 -43q143 429 197.5 660t79.5 466q5 95 18 226q7 28 39 28q21 0 47 -16q1 -13 18.5 -36.5t18.5 -37.5q11 10 45 80q27 57 53 57q16 0 37 -14q45 -130 98 -450q52 -309 87 -431q92 -317 228 -317q158 0 207 548q19 218 19 675q0 30 22.5 50.5t52.5 20.5q47 0 60 -59 q10 -45 10 -283q0 -361 -52 -635q-88 -466 -302 -466q-158 0 -268 165q-55 82 -140 304q-34 88 -84 251q-47 -213 -167 -472q-16 -34 -226 -449l-15 -1h-6q-40 0 -58 47q-5 11 -19 89z" />
<glyph unicode="O" horiz-adv-x="1362" d="M158 147q0 447 282 787q-4 37 -4 70q0 170 114.5 289.5t283.5 119.5q177 0 380 -219q199 -216 199 -395q0 -124 -121 -260q-137 -154 -429 -343q-327 -212 -490 -212q-78 0 -142 42q-73 47 -73 121zM295 202q0 -40 5 -53q10 -24 44 -24q95 0 439 213q316 197 421 297 q88 84 88 168q0 38 -16 78q-56 141 -165 239q-123 111 -261 111q-143 0 -225 -137q96 -39 96 -93q0 -31 -73 -121.5t-73 -134.5q0 -22 13 -45l-74 25q-108 -169 -147 -248q-72 -149 -72 -275z" />
<glyph unicode="P" horiz-adv-x="1192" d="M219 86q0 626 84 1200q5 58 27 164q12 38 69 47q14 2 90 2q58 -57 277.5 -209t313.5 -244q151 -147 151 -274q0 -246 -287 -246q-85 0 -234 29q-162 31 -233 35q-15 -160 -31 -319q-33 -188 -129 -283q-12 -4 -24 -4q-34 0 -55 36q-19 30 -19 66zM436 1094q0 -61 19 -265 q229 -159 436 -159q75 0 133 19q84 28 84 85q0 99 -157 221q-61 47 -242 156q-170 102 -244 176q-29 -117 -29 -233z" />
<glyph unicode="Q" horiz-adv-x="1565" d="M143 395q0 168 120 392q102 190 241 339q270 289 543 289q185 0 306 -189q65 -102 148 -352q23 -69 23 -137q0 -136 -80 -279q-74 -133 -189 -222q38 -129 68 -193q55 -116 129 -152q54 -26 90 -26q40 0 70 39q16 -35 16 -66q0 -82 -78 -82q-153 0 -267 121 q-39 41 -175 248q-251 -88 -280 -96q-164 -49 -291 -49q-179 0 -288 119q-106 115 -106 296zM299 373q0 -221 219 -221q150 0 529 157q-25 50 -51 101q-29 61 -29 106q0 77 69 77q46 0 94 -69q10 -13 64 -110q203 147 203 340q0 268 -252 501q-166 0 -372 -151 q-195 -143 -331 -347q-143 -215 -143 -384z" />
<glyph unicode="R" horiz-adv-x="1278" d="M162 84q87 363 124 687q17 150 21 253l4 92q10 29 31 86l109 -12q22 41 30 197q6 128 86 196q157 -98 315 -197q199 -133 303 -255q136 -161 136 -328q0 -193 -114 -293q-108 -96 -302 -96q-42 0 -127 5t-127 5q-122 0 -125 -62q40 -28 237 -51q219 -25 311 -61 q151 -60 151 -188v-5v-10q-37 -90 -84 -90q-17 0 -29 16q-18 124 -163 161q-67 17 -292 25q-185 5 -247 48l-68 -128q-51 -80 -100 -93zM506 621q0 -52 4 -95q68 49 182 49q48 0 143.5 -11t143.5 -11q211 0 211 231q0 175 -211 334q-116 87 -367 207l-70 -350 q-36 -202 -36 -354z" />
<glyph unicode="S" horiz-adv-x="987" d="M141 211q0 43 28 77t71 34t96 -49q86 -80 102 -91q71 -49 160 -49q113 0 184.5 70.5t71.5 183.5q0 131 -96 182q-60 32 -241 90q-155 50 -226 102q-107 79 -133 216q-6 31 -6 57q0 193 251 324q125 65 299 65q86 0 218 -16q49 -101 49 -117q0 -45 -86 -55 q-104 -11 -207 -21q-160 -21 -250 -60q-121 -53 -121 -140q0 -93 168 -154q114 -34 326 -112q189 -83 189 -304q0 -200 -77 -325q-93 -150 -280 -150q-135 0 -294 60q-196 74 -196 182z" />
<glyph unicode="T" horiz-adv-x="1241" d="M115 971q51 55 171 88q162 45 187 57q93 44 109 137q7 2 14 2q29 0 62 -38q24 -31 47 -62q59 3 190 32q123 27 192 27q154 0 195 -120q-88 -12 -282 -57q-182 -42 -283 -54q-13 -80 -50 -494q-27 -303 -85 -489q-13 -4 -19 -4q-28 0 -50 38q-17 30 -17 56v8l86 774 q1 7 1 13q0 61 -75 61q-27 0 -147 -55t-197 -55q-49 49 -49 135z" />
<glyph unicode="U" horiz-adv-x="1335" d="M229 352q0 182 45 453q26 126 66 377q2 61 14 180q16 96 111 106q63 -49 63 -127q0 -19 -6 -38q-92 -290 -153 -932q-1 -15 -1 -30q0 -61 23 -125q29 -82 76 -89q14 -2 43 -2q266 0 412 448q58 178 121 591q7 71 30 206q11 45 51 45q50 0 79 -55q22 -45 22 -100 q0 -43 -16 -105q-13 -52 -27 -104q-44 -187 -89 -375q-51 -234 -51 -373q0 -194 115 -194q61 0 85 45q23 43 50 43h2q56 -43 68 -142q-12 -44 -81 -81q-64 -33 -114 -33q-93 0 -176.5 86.5t-85.5 179.5q-108 -129 -199 -182q-110 -64 -262 -64q-215 0 -215 391z" />
<glyph unicode="V" horiz-adv-x="1049" d="M94 1212q0 23 22.5 49.5t45.5 26.5q16 0 31 -14q44 -137 105 -501q55 -321 128 -494q275 472 407 899q27 113 85 342q15 55 59 55q40 0 70 -30t30 -70q0 -33 -24 -73q-32 -52 -37 -67q-29 -98 -91 -294q-115 -330 -306 -730q-50 -114 -144 -291q-27 -40 -84 -40 q-14 0 -26 4q-104 245 -172 600q-19 99 -69 425q-30 201 -30 203z" />
<glyph unicode="W" horiz-adv-x="1380" d="M147 1038q0 156 31 228q6 15 31 15q8 0 22.5 -1.5t20.5 -1.5q58 -157 77 -479q20 -331 70 -480q67 90 173 323q99 217 184 316q92 -45 92 -124q0 -31 -13 -79q-15 -60 -18 -79q-10 -72 -10 -129q0 -79 26 -181q34 -133 87 -133q35 0 81 50q291 315 291 782q0 123 -20 238 q-21 121 -21 124q0 103 72 103q46 0 72 -68q37 -97 37 -397q0 -643 -357 -942q-86 -72 -123 -72q-32 0 -73 27q-181 118 -185 414q-190 -338 -295 -504q-82 0 -120 67q-27 48 -33 152q-1 54 -6 162q-6 98 -52 333q-41 213 -41 336z" />
<glyph unicode="X" horiz-adv-x="1374" d="M127 1174q0 43 8 86q21 4 39 4q35 0 108 -30q58 -25 98 -25q7 0 13 1q1 -42 -47 -52q-54 -11 -63 -34q40 -144 165 -296q79 -96 240 -244q63 75 213 208q147 131 210 207q104 125 142 261q39 47 97 47q68 0 75 -72q-45 -133 -165 -278q-53 -64 -234 -247 q-149 -151 -215 -249q152 -252 283 -344q12 24 73 24q23 -30 23 -57q0 -26 -42 -69q-47 -49 -54 -70q-15 -2 -25 -2q-32 0 -61 75l-320 320q-160 -111 -418 -369q-73 25 -98 62l-1 13v6q0 74 94 155q92 68 184 137q100 79 100 143q0 47 -41 92q-9 10 -78 68 q-124 104 -206 236q-97 155 -97 293z" />
<glyph unicode="Y" horiz-adv-x="1067" d="M129 1116q0 180 80 326q30 -7 56 -31q30 -26 30 -55q0 -12 -12 -189l-7 -90q0 -112 37 -208q50 -128 144 -128q79 0 211 138q92 96 165 268q100 235 128 283q14 4 28 4q84 0 107 -115q-159 -318 -221 -414q-136 -213 -320 -340q-5 -37 -40 -198q-26 -121 -26 -199 q0 -66 17 -119q19 1 40 25q27 33 34 37q41 -37 41 -78q0 -44 -56 -102q-62 -64 -71 -91h-10h-5q-69 0 -121 86q4 336 45 613q-130 78 -206 253q-68 157 -68 324z" />
<glyph unicode="Z" horiz-adv-x="1595" d="M125 1177q0 10 2 19q217 113 498 113q209 0 412 -60q226 -66 368 -188q65 -56 65 -166q0 -94 -53 -190q112 -31 148 -49q82 -41 98 -111q-102 35 -201 35q-299 0 -647 -367q12 -1 28 -1q50 0 148.5 12t147.5 12q211 0 278 -146v-37q-94 31 -190 31q-92 0 -276 -42 t-271 -42q-51 0 -98 115q16 103 104 204q9 10 166 164q-45 62 -45 107t57 53q155 22 297 108q160 96 160 158q0 108 -263 165q-183 40 -358 40q-286 0 -512 -65q-63 97 -63 128z" />
<glyph unicode="[" horiz-adv-x="1090" d="M109 82q0 5 24 193l55 427q39 329 39 633q0 133 -8 258q125 58 275 58q204 0 278 -119v-111q-86 35 -203 35q-94 0 -202 -22q14 -109 14 -224q0 -190 -60 -546q-61 -368 -65 -545q134 7 405 56q268 48 406 54q55 -40 55 -104q0 -31 -18 -55q-142 0 -418 -80t-418 -80 q-65 0 -123 12z" />
<glyph unicode="\" horiz-adv-x="862" d="M53 1257q44 62 74 62q25 0 61 -98l50 -136q25 -54 79 -159q93 -171 238 -377q128 -182 169 -243q93 -140 153 -253q-17 -39 -35 -78q-26 -45 -64 -45q-108 53 -183 183l-116 242q-70 145 -155 214q-23 70 -155 338q-101 206 -116 350z" />
<glyph unicode="]" horiz-adv-x="1036" d="M94 1343q153 0 432 29q147 13 441 45l73 -110q-46 -206 -92 -411q-49 -241 -49 -417q0 -205 68 -389l-25 -74q-86 45 -203 45q-87 0 -237 -31q-166 -33 -236 -38q-61 49 -61 184q119 39 286 55q145 9 291 19q0 376 5 466q15 271 81 455q-67 23 -147 23q-69 0 -206 -22.5 t-206 -22.5q-61 0 -116 10q-78 62 -99 184z" />
<glyph unicode="^" horiz-adv-x="1071" d="M84 1274q45 68 255 325q161 196 228 345q19 6 39 6q74 0 123 -64q-8 -35 -8 -71q0 -114 99 -241q44 -58 183 -194q99 -96 99 -133q-34 -75 -33 -84q-125 46 -243 166q-12 11 -195 225l-74 -14q-159 -234 -162 -239q-108 -143 -205 -195q-34 38 -67 77q-37 49 -39 91z" />
<glyph unicode="_" horiz-adv-x="1346" d="M49 -270l12 49q155 -33 358 -33q97 0 290.5 14.5t290.5 14.5q267 0 358 -33q37 -13 37 -59v-76l-49 -37q-166 45 -351 45q-107 0 -343 -24q-257 -25 -519 -25q-44 0 -64 63q-1 2 -20 101z" />
<glyph unicode="`" horiz-adv-x="612" d="M129 1618q163 -47 264 -164q168 -195 199 -250q18 -32 18 -94q0 -49 -18 -100q-23 -66 -62 -66q-22 0 -51 33q-38 42 -45 47q17 51 17 92q0 85 -78 160q-71 60 -142 119q-47 44 -68 104q-17 60 -34 119z" />
<glyph unicode="a" horiz-adv-x="918" d="M117 666q0 22 6 43q71 31 330 130q281 107 303 107q92 0 92 -102q0 -110 -66 -311q-68 -209 -73 -312q26 -39 69 -45q62 -7 78 -16q18 -35 18 -68q0 -69 -129 -178q-194 -14 -217 -14q-135 0 -234 53q-122 67 -122 192q0 95 89 159q80 58 179 58q72 0 133 -30 q97 160 115 389q-79 -15 -249 -108q-155 -83 -255 -89q-67 54 -67 142zM351 127l1 -16q49 -52 142 -52q77 0 120 39q-37 17 -65 99q-41 18 -90 18q-108 0 -108 -82v-6z" />
<glyph unicode="b" horiz-adv-x="1032" d="M78 203q0 23 57 61h49q260 702 260 1151q0 109 -22 174q45 0 95 -29q56 -33 56 -75q0 -297 -53 -664l31 1h16q161 0 313 -97q179 -114 179 -276q0 -47 -17 -99q-82 -248 -499 -307q-262 -37 -273 -37q-47 0 -108 71q-6 7 -82 113q-2 7 -2 13zM350 223q82 -41 191 -41 q150 0 252 72q116 81 116 225q0 96 -92 147q-74 42 -178 42q-77 0 -107 -17q-66 -37 -115 -197q-33 -116 -67 -231z" />
<glyph unicode="c" horiz-adv-x="1184" d="M113 195q0 178 198 379q144 146 351 268l25 1h12q74 0 161 -44l158 -92q-21 -62 -116 -62q-24 0 -72.5 3t-72.5 3q-129 0 -301 -143q-177 -147 -177 -272q0 -59 41 -99.5t100 -40.5q76 0 277 101.5t280 101.5q94 0 94 -68q0 -30 -12 -53q-434 -217 -647 -217 q-115 0 -201 58q-98 66 -98 176z" />
<glyph unicode="d" horiz-adv-x="1235" d="M109 250q0 238 263 389q223 127 480 127q72 0 139 -10q49 123 110.5 381t110.5 381h62q2 -41 2 -82q0 -228 -81 -531q-77 -259 -155 -518q11 -8 21 -8q11 0 52.5 41t74.5 41q-14 -56 -106 -184q-79 -109 -79 -179v-5l1 -13h36q1 -55 -65 -55q-19 0 -59.5 8t-61.5 8 q-69 0 -207.5 -19.5t-208.5 -19.5q-88 0 -170 28q-103 35 -137 99q-22 41 -22 121zM256 274q0 -131 207 -131q228 0 418 121q0 63 21 167q24 122 28 165q-56 16 -121 16q-192 0 -372.5 -113t-180.5 -225z" />
<glyph unicode="e" horiz-adv-x="1188" d="M197 551q88 15 205 123q125 115 188 135q104 33 233 33q105 0 203 -35q133 -48 133 -133q0 -51 -47 -111q-281 -166 -592 -166q-57 0 -117 6q-51 -36 -51 -98q0 -64 52 -103q46 -36 112 -36q93 0 293 81t285 81q49 0 80 -23q-340 -299 -619 -299q-157 0 -246 73 q-96 79 -96 232q0 23 2 67.5t2 67.5q0 70 -20 105zM514 532q0 -34 61 -34q93 0 232 56t207 120q-74 37 -164 37q-83 0 -171 -33q-99 -37 -142 -96q-23 -32 -23 -50z" />
<glyph unicode="f" horiz-adv-x="1384" d="M29 487q0 109 101 137q102 20 205 39q122 43 159 185q46 196 92 391q73 291 154 462q109 231 243 273q19 6 35 6q172 0 308 -455q110 -368 110 -601q0 -32 -22 -54t-54 -22q-44 0 -85 32q-44 33 -44 76q0 25 24 50q21 19 43 38q-46 607 -249 762q-22 17 -41 17 q-125 0 -273 -475q-133 -427 -133 -648q0 -25 4 -38q303 -31 543 -164q-1 -17 16 -41q-45 -8 -94 -8q-68 0 -202.5 20t-202.5 20q-33 0 -62 -4q-53 -69 -53 -213q0 -12 7 -109q2 -26 2 -48q0 -35 -5 -60l227 111q2 -9 2 -19q0 -72 -86 -171t-159 -99q-63 0 -96 76 q-25 57 -25 129q0 35 7 104.5t7 104.5q0 125 -113 125q-36 0 -108 -15.5t-107 -15.5q-75 0 -75 102z" />
<glyph unicode="g" horiz-adv-x="1174" d="M49 -494q0 15 14 29q123 -4 378 -91q249 -85 382 -85q90 0 173 42q100 52 100 133q0 71 -175 250q-185 188 -206 294q-142 -78 -320 -78q-121 0 -192.5 72t-71.5 194q0 167 129 343q139 188 299 188q46 0 132.5 -30t131.5 -30q20 0 56.5 9.5t56.5 9.5q131 0 131 -105 q0 -73 -103.5 -274t-103.5 -291q0 -78 91 -185l168 -184q91 -111 91 -200q0 -82 -71 -168q-84 -101 -279 -101q-224 0 -498 94q-164 57 -176 62q-137 56 -137 102zM287 248q0 -119 102 -119q88 0 225 51q65 24 105 184q5 19 41 230q-45 74 -185 74q-102 0 -199 -161 q-89 -147 -89 -259z" />
<glyph unicode="h" horiz-adv-x="981" d="M190 80q22 114 60 544q30 338 100 537q96 -51 96 -153q0 -55 -27.5 -163.5t-27.5 -164.5q0 -74 33 -133q180 198 364 198q120 0 163 -78q30 -55 30 -182q0 -284 -115 -614q-12 -4 -18 -4q-23 0 -50 31q-36 43 -42 47q96 327 96 553q0 86 -29 86q-181 0 -444 -402 q0 -1 -41 -123q-22 -66 -61 -66h-3l-10 1z" />
<glyph unicode="i" horiz-adv-x="782" d="M217 133q0 109 65 281q80 210 93 276q33 -12 86 -74q-5 -66 -60 -206q-52 -132 -52 -205q0 -70 73 -70q55 0 155 33q77 28 154 55q19 -24 19 -53q0 -35 -31 -82q-199 -119 -348 -119q-154 0 -154 164zM453 926q0 114 116 129q68 -22 137 -45q75 -33 85 -103 q-27 -37 -62 -37q-33 0 -61 37q-18 -4 -78 -54q-56 -48 -82 -48q-55 0 -55 121z" />
<glyph unicode="j" horiz-adv-x="618" d="M49 -348q79 -5 201 -110q118 -103 180 -103q19 0 37 4q22 82 22 176q0 130 -61 384t-61 384q0 72 14 137l15 1h5q92 0 101 -99v-34q0 -58 4 -150q26 -113 72 -314q38 -175 38 -307q0 -186 -75 -338q-45 -20 -92 -20q-124 0 -245 138q-93 105 -155 251zM442 918 q63 -7 98 -92q38 -92 74 -105q-12 -37 -110 -37q-47 33 -58 107q-4 24 -4 127z" />
<glyph unicode="k" horiz-adv-x="1098" d="M166 45q0 171 134 516t134 529q0 67 -10 135l37 37q78 -72 78 -207q0 -74 -23 -175q-22 -85 -43 -171l-74 -332q116 21 288 167q126 119 253 238q34 0 60 -35q19 -31 38 -63q2 -77 -75 -144q-79 -56 -158 -111q-96 -69 -123 -138q126 -69 442 -123q-65 -109 -211 -109 q-43 0 -129 12t-130 12q-17 0 -33 -1q-62 31 -62 147q-62 -13 -163 -103q-5 -5 -144 -142q-3 2 -51 25q-35 16 -35 36z" />
<glyph unicode="l" horiz-adv-x="571" d="M258 -16q15 499 51 876q10 134 47 377q9 39 59 81t89 42q62 0 62 -95q0 -137 -111 -212q-49 -444 -86 -959q28 -26 28 -63q0 -33 -20 -61q-23 -31 -55 -31q-38 0 -64 45z" />
<glyph unicode="m" horiz-adv-x="1454" d="M195 35l49 614q1 11 60 12q10 0 13 1l74 -99q47 79 131 148q97 80 174 80q66 0 101 -60q14 -25 39 -110q18 -60 41 -60q1 0 142.5 96.5t225.5 96.5q166 0 166 -236q0 -28 -35 -334q-36 -313 -121 -313q-34 0 -59 34q-22 30 -22 66q0 37 40 138q28 71 52 210 q22 133 22 216q0 77 -24 77q-67 0 -166 -75q-116 -88 -267 -314q-77 -115 -104 -115q-40 0 -71 48q-29 43 -29 88q0 53 27.5 156.5t27.5 156.5q0 31 -8 55q-113 -104 -216 -305q-42 -84 -153 -346q-12 -2 -18 -2q-32 0 -61 21q-34 24 -31 55z" />
<glyph unicode="n" horiz-adv-x="1038" d="M70 203q0 72 24.5 245t24.5 238q0 21 -2 39q86 -23 135 -86q0 -8 -2 -32q-1 -20 -1 -32q0 -29 15 -47q132 185 172 224q110 108 252 108q163 0 245 -164q64 -127 64 -309q0 -321 -180 -584q-14 -6 -26 -6q-36 0 -73 51q-34 48 -34 86q0 84 129 175q35 114 35 276 q0 135 -22 199q-36 108 -142 108q-153 0 -266 -179q-60 -96 -146 -334q-65 -179 -102 -179q-100 0 -100 203z" />
<glyph unicode="o" horiz-adv-x="1004" d="M154 178q0 234 174 408q0 110 91 187q87 73 199 73q146 0 254.5 -105.5t108.5 -251.5q0 -201 -157 -352t-359 -151q-191 0 -309 145q-2 24 -2 47zM327 187l1 -19q143 0 212 14q114 23 187 94q109 107 109 230q0 75 -52 125.5t-127 50.5q-55 0 -96 -35q29 -49 29 -90 q0 -60 -70 -121q-65 -53 -129 -106q-64 -63 -64 -135v-8z" />
<glyph unicode="p" horiz-adv-x="1042" d="M90 -444q0 34 45 163q94 268 94 439q0 57 -8 108q67 56 121 217q77 227 91 254q61 123 159 123q158 0 292 -199q122 -182 122 -349q0 -115 -49 -210q-59 -112 -162 -127q-27 -4 -66 -4q-151 0 -313 97q-47 -161 -93 -321q-72 -217 -141 -284q-92 15 -92 93zM446 244 q142 -101 256 -101q73 0 116.5 48t43.5 121q0 95 -62 222q-70 145 -151 145q-96 0 -149 -175z" />
<glyph unicode="q" horiz-adv-x="1208" d="M209 246q0 149 144 273q139 119 291 119q173 0 290 -185q31 9 72 87q38 74 67 74q38 0 77.5 -47.5t39.5 -87.5q0 -44 -75 -150q-55 -76 -109 -151q-137 -220 -170 -512q45 -51 149 -83q120 -36 158 -64q-22 -3 -113 -25q-69 -16 -115 -16q-24 0 -59.5 12t-48.5 12 q-46 0 -115 -98q-75 -107 -88 -113q-112 0 -112 105q0 71 138 294q149 241 169 333q-103 -23 -217 -23q-373 0 -373 246zM367 269q0 -76 81 -114q62 -29 147 -29q249 0 290 204q-103 148 -265 148q-86 0 -167 -61q-86 -65 -86 -148z" />
<glyph unicode="r" horiz-adv-x="899" d="M119 535q0 127 33 225q110 -36 110 -74q0 -14 -4 -41t-4 -41q0 -33 20 -53q140 139 152 149q100 82 190 82q87 0 169 -65q7 -6 133 -129q-58 -72 -121 -72q-23 0 -41 10q-24 41 -69 73q-49 34 -93 34q-137 0 -231 -269q-76 -215 -76 -391q-19 -8 -35 -8q-82 0 -100 119 q-5 78 -16 225q-17 152 -17 226z" />
<glyph unicode="s" horiz-adv-x="981" d="M92 158q55 12 125 12q112 0 295 -38t209 -38q37 0 37 19q0 47 -110 112q-196 115 -206 122q-110 81 -110 167q0 124 127 210q113 77 243 77q164 0 269 -111q2 -14 2 -27q0 -90 -90 -90q-41 0 -120.5 20.5t-119.5 20.5q-51 0 -96 -30q-51 -34 -51 -82q0 -49 109 -120 l204 -130q109 -82 109 -156q0 -65 -50 -101q-44 -32 -110 -32q-77 0 -230 30t-231 30q-53 0 -98 -9q-23 9 -57 65q-41 69 -50 79z" />
<glyph unicode="t" horiz-adv-x="1075" d="M135 659q70 36 200 62q155 31 206 49q38 59 73 235q33 160 99 232q40 0 63 -26q10 -11 35 -60l1 -20v-7q0 -68 -38 -164q-53 -131 -61 -165q26 -2 59 -2t98.5 3t98.5 3q82 0 137 -17q-11 -66 -135 -84q-161 -23 -218 -64q-114 -82 -114 -310q0 -151 20 -228q6 -24 25 -24 q50 0 171 119q92 89 153 169q34 -14 34 -57q0 -15 -5 -45t-5 -45q-203 -262 -354 -262q-121 0 -160 192q-20 95 -20 285q0 88 6 158q-27 16 -64 16t-109 -21.5t-108 -21.5q-78 0 -88 100z" />
<glyph unicode="u" horiz-adv-x="887" d="M123 227q0 71 20 154l86 356q13 4 25 4q22 0 53 -30q23 -23 45 -47q-32 -109 -65 -217q-39 -144 -39 -216q0 -105 66 -105q79 0 230 207q95 132 177 281q18 15 37 15q25 0 50 -33q18 -28 36 -55q-133 -250 -133 -346q0 -39 11 -50q6 -7 70 -44q50 -29 50 -56 q0 -29 -38 -60.5t-69 -31.5q-84 0 -149 219q-63 -58 -125 -116q-82 -66 -150 -66q-93 0 -144 75q-44 65 -44 162z" />
<glyph unicode="v" horiz-adv-x="1092" d="M96 762q26 78 62 78q17 0 37 -17q46 -86 107 -319q55 -210 126 -311q128 119 270 366q174 302 240 387q23 4 41 4q98 0 98 -96q0 -75 -120 -232q-89 -111 -177 -221q-129 -182 -156 -217q-94 -119 -188 -190q-113 40 -180 189q-42 94 -86 300q-45 210 -74 279z" />
<glyph unicode="w" horiz-adv-x="1432" d="M162 143q0 97 30 232q29 115 58 229q12 4 24 4q33 0 86 -53l1 -18v-9q0 -61 -25 -169q-29 -121 -29 -177q0 -39 21 -39q6 0 20 7q178 87 270 344q29 18 46 18q16 0 53 -18q28 -37 28 -91q0 -26 -9 -78.5t-9 -78.5q0 -75 60 -116q52 -36 131 -36q140 0 257 104 q121 108 121 246q0 181 -174 320q0 14 -5 42.5t-5 43.5q0 41 35 61q120 -55 195 -175t75 -253q0 -198 -155.5 -352t-352.5 -154q-200 0 -303 209q-75 -67 -149 -133q-102 -90 -163 -90q-132 0 -132 180z" />
<glyph unicode="x" horiz-adv-x="1200" d="M170 713q0 47 33 98q30 -14 280 -96q172 -56 260 -137l120 126q77 70 151 70q88 -44 88 -122q0 -12 -2 -25q-92 -30 -196 -136q-8 -8 -161 -184q43 -74 170 -97q196 -35 204 -38q100 -39 106 -160q-54 -10 -107 -10q-227 0 -508 219q-69 -18 -177 -139 q-104 -115 -118 -115q-64 0 -86 144l346 374q-36 77 -127 108q-14 5 -170 34q-20 -29 -47 -29q-22 0 -39 16q-20 66 -20 99z" />
<glyph unicode="y" horiz-adv-x="1098" d="M184 -356q99 -29 203 -29q420 0 502 500q-187 -135 -342 -135q-258 0 -258 276q0 94 31.5 249.5t31.5 172.5q0 7 -4 21.5t-4 21.5q0 35 33 60q30 22 67 22q64 0 64 -75q0 -79 -43 -232.5t-43 -231.5q0 -135 149 -135q142 0 336 154q4 73 4 159q0 74 -7 222.5t-7 220.5 q145 -72 145 -275q0 -413 -54 -632q-89 -365 -349 -494q-111 -55 -221 -55t-165 53q-50 50 -69 162z" />
<glyph unicode="z" horiz-adv-x="1106" d="M145 653q0 19 9 39q198 94 419 94q240 0 392 -118q0 -14 4 -41t4 -41q0 -33 -21 -54q7 -7 112 -57q76 -37 73 -81v-9q-66 -37 -182 -44q-152 -9 -187 -17q-89 -78 -115 -103q-61 -59 -102 -117q18 -4 41 -4q57 0 169 26t169 26q65 0 108 -25q-29 -122 -199 -155 q-68 -13 -277 -13q-63 0 -120 31q-67 38 -67 96q0 57 76.5 118.5t76.5 98.5q0 27 -43 77.5t-43 70.5q0 30 46 53q40 20 73 20q25 0 75 -7t75 -7q96 0 131 84q-115 20 -232 20q-221 0 -395 -69q-70 51 -70 108z" />
<glyph unicode="{" horiz-adv-x="1073" d="M94 -43q0 116 119 229q77 73 253 181q180 111 228 155q-25 29 -93 33q28 -2 -105 -2q-122 0 -122 86q0 103 84 160q56 38 186 71q143 37 185 58q-188 96 -405 147q-85 20 -140 74q-61 60 -61 143q0 107 106 219q88 92 203 148q193 94 297 129q24 8 45 8q107 0 152 -156 q-72 -42 -252 -87q-171 -43 -248 -95q-123 -82 -123 -145q0 -65 161 -128q149 -56 299 -112q161 -76 161 -172q0 -31 -15.5 -62t-142.5 -67q-152 -43 -170 -53q59 -20 110.5 -93.5t51.5 -136.5q0 -82 -158 -182q-115 -62 -231 -125q-76 -42 -128 -112.5t-52 -118.5 q0 -50 55 -50q22 0 65.5 3.5t65.5 3.5q81 0 240 -29t239 -29q66 0 131 15l17 -27q-5 -7 -27 -16q-176 -74 -567 -74h-207q-13 0 -57 14q-150 50 -150 195z" />
<glyph unicode="|" horiz-adv-x="543" d="M195 2241q155 -31 216 -173q45 -104 45 -293q0 -42 -2.5 -117.5t-2.5 -107.5q0 -201 14 -602t14 -602q0 -158 -15 -273q-9 -71 -48 -278q-19 -8 -37 -8q-87 0 -135 119q71 393 71 954q0 137 -5 421q-8 448 -11 484q-18 234 -104 476z" />
<glyph unicode="}" horiz-adv-x="1298" d="M238 -143q0 26 18 49q336 98 459 141q377 131 377 210q0 80 -125 143q-117 53 -234 105q-126 69 -126 164q0 55 105 135q78 52 156 105q-266 25 -266 133q0 107 124 249q66 76 230 221q124 109 124 135l-1 4q-1 47 -189 81q-147 27 -237 27q-140 0 -250 -47 q-19 -8 -34 -8q-77 0 -77 123q0 121 234 121q158 0 410 -66q290 -76 355 -168q52 -74 52 -110q0 -27 -18 -52q-356 -213 -504 -405q0 -53 68 -75q63 -17 127 -33q68 -29 68 -99t-80 -127q-31 -23 -150 -81q-80 -39 -80 -66q0 -30 115 -87q157 -78 215 -122q115 -89 115 -197 q0 -61 -17 -96q-42 -86 -179 -182q-113 -79 -228 -127q-165 -68 -490 -134q-67 105 -67 136z" />
<glyph unicode="~" horiz-adv-x="1395" d="M258 1413q0 71 170.5 218t253.5 147q121 0 165 -127q14 -40 39 -235q16 -126 68 -126q48 0 121 83l134 154q86 83 165 83q17 0 33 -4q41 -60 41 -97q0 -14 -4 -26q-63 -24 -237 -185q-150 -139 -249 -139q-147 0 -202 174q-22 109 -66 264q-11 23 -39 23q-65 0 -163 -152 q-78 -121 -113 -219q-65 60 -75 72q-42 48 -42 92z" />
<glyph unicode="&#xa1;" horiz-adv-x="496" d="M188 860q26 49 53 98q38 54 89 54q50 0 79 -34.5t29 -84.5q0 -73 -63 -126.5t-137 -53.5q-39 0 -48 59q-2 14 -2 88zM283 209q0 203 102 319q21 -89 41 -338q11 -139 30 -234q2 -8 15 -54q12 -39 12 -49q0 -18 1 -66.5t1 -76.5q0 -305 -125 -374q-31 58 -36 143v149 q0 68 -13 163q-4 71 -14 210q-14 142 -14 208z" />
<glyph unicode="&#xa2;" horiz-adv-x="758" d="M106 565q0 283 216 322q66 12 91 24q39 19 68 66q26 42 63 181q32 118 85 171q39 -43 39 -108q0 -46 -22.5 -135.5t-22.5 -135.5q0 -23 13 -64.5t13 -62.5q0 -45 -119 -71q-88 -160 -91 -165q-48 -99 -56 -179q39 -19 82 -19q60 0 142 41q10 5 132 76q25 -25 25 -51 q0 -19 -25 -84q-36 -95 -169 -121l-220 -32q-110 -30 -110 -138q0 -58 20 -127q4 -12 49 -12q-13 -56 -16 -63q-14 -37 -43 -37q-5 0 -14 1q-68 84 -68 205q0 64 20 139q23 88 23 74q0 50 -86 160q-19 74 -19 145z" />
<glyph unicode="&#xa3;" horiz-adv-x="1526" d="M59 270q0 27 11 54q159 73 528 73q2 19 2 33q0 94 -96 94q-26 0 -79 -6t-79 -6q-106 0 -106 106q0 19 2 37q112 37 188 37q49 0 107 -12q30 14 30 35q0 14 -11 38.5t-11 39.5q0 11 4 22q-29 25 -72 25q-29 0 -83.5 -16.5t-82.5 -16.5q-43 0 -43 55q0 29 11 76 q32 39 134.5 55.5t135.5 55.5q30 262 32 272q33 153 128 231q100 82 225 97q17 2 214 2h28q36 -62 36 -111q0 -29 -12 -61q-94 12 -166 12q-297 0 -375 -209q0 -35 -13 -105.5t-13 -105.5q0 -37 14 -59q37 -26 133 -45q103 -21 139 -40q66 -36 72 -112q-63 12 -172 10 q-127 -2 -172 2q-12 -39 -12 -67q0 -81 97 -99q96 -6 192 -11q114 -10 141 -68q-33 -37 -134 -42q-156 -9 -161 -10q-78 -15 -78 -77q0 -33 17 -80q284 -234 604 -234q71 0 145 13q37 49 49 86q37 0 74 -37q6 -25 6 -51q0 -168 -229 -168q-142 0 -315 59q-87 30 -298 123 q-51 -195 -58 -212q-47 -119 -138 -157q-89 0 -184 71q-38 29 -148 138q-11 25 -93 129q-65 82 -65 137zM229 201q61 -73 122 -145q80 -79 163 -79q16 0 35 3q80 100 80 165q0 37 -19 68q-96 23 -198 23q-123 0 -183 -35z" />
<glyph unicode="&#xa4;" horiz-adv-x="1747" d="M190 1106q0 24 7 51l21 1q144 6 360 -185q178 188 505 188q150 0 293 -41q54 201 418 369q31 -92 31 -105q0 -27 -40 -65.5t-40 -63.5l-25 25q-36 -37 -130 -115q-86 -71 -128 -118q86 -86 86 -226q0 -91 -48 -169q-8 -14 -111 -146q85 -30 195 -134q125 -117 185 -149 v-110q-72 0 -216 100q-148 103 -226 109l-74 86q-321 -160 -524 -160q-65 0 -127 12q-100 -178 -246 -270q-65 26 -65 108q0 35 16 64q105 77 106 78q59 52 66 106q-47 152 -47 279q0 129 47 237q-25 39 -104 75q-104 48 -125 63q-60 42 -60 106zM553 588q0 -84 95 -126 q71 -32 167 -32q200 0 392 108q214 121 255 300q-88 133 -274 133q-80 0 -254 -35q-19 -38 -102 -57t-107 -78l61 -37q-49 -82 -137 -82q-24 0 -47 8q-49 -49 -49 -102z" />
<glyph unicode="&#xa5;" horiz-adv-x="1323" d="M80 1757q25 0 65 -26.5t68 -26.5q13 0 27 4v-98h-13q11 -190 64 -334q72 -196 207 -256q14 -6 32 -6q47 0 74 94t66 94q28 0 73 -22l541 737q31 -7 57 -30q29 -27 29 -56l-12 -98q-141 -133 -334 -400l-317 -436q0 -48 59 -60l120 -14q71 -13 91 -61q-4 -56 -82 -79 l-142 -28q-75 -18 -75 -63q0 -29 29 -76h50q40 1 55 1q177 0 214 -99q0 -34 -41 -39q-12 -1 -62 -10q-38 -7 -61 -7q-17 0 -50 2.5t-50 2.5q-148 0 -154 -97q-7 -114 1 -135l1 8q-4 -71 -26 -118q-15 -5 -25 -5q-32 0 -49 50q-15 40 -12 77l12 172q-18 13 -51 13 q-35 0 -102.5 -17.5t-102.5 -17.5q-80 0 -80 90q0 19 2 31t197 59q115 28 174 64q-2 5 -1 40q1 28 -11 33q-12 -28 -43 -34q-6 -1 -59 -2h-34q-53 53 -53 116q0 15 4 31q67 21 197 74q-170 71 -271 241q-78 132 -128 351z" />
<glyph unicode="&#xa6;" horiz-adv-x="358" d="M72 2396q13 51 41 51q39 0 94 -112q8 -112 61 -409q45 -257 45 -410q0 -72 -8 -140q-10 -4 -20 -4q-41 0 -103 90q1 30 1 61q0 184 -38 438q-37 218 -73 435zM133 836q0 25 19 44t45 19q21 0 34 -14q38 -40 64 -199q35 -210 35 -207l-62 -872q-125 0 -125 289 q0 103 21.5 308t21.5 308q0 188 -53 324z" />
<glyph unicode="&#xa7;" horiz-adv-x="770" d="M106 -459q0 37 44 51q182 -81 274 -81q221 0 221 210q0 54 -16 93q-44 109 -248 403q-91 129 -256 395q0 65 73 148q62 62 124 123q-166 288 -166 516q0 171 55 246q48 66 156 113q103 44 190 44q64 0 121 -22l49 -74q-19 -69 -100 -76q-58 -4 -146 -22 q-83 -40 -143 -115q-67 -83 -67 -168q0 -86 54 -183q6 -11 107 -161q15 15 40 15q9 0 24.5 -1.5t21.5 -1.5q50 -101 78 -139q49 -68 119 -106q47 -68 47 -179q0 -94 -35 -166l-221 -110q21 -69 160 -313q112 -198 112 -324q0 -127 -100 -236q-18 -48 -58 -48q-10 0 -29.5 3 t-29.5 3q-21 0 -31 -7q-28 -6 -65 -6q-135 0 -315 80q-44 57 -44 96zM309 563q35 -82 86 -82q29 0 108 50q75 49 113 44q2 15 2 25q0 50 -70 79q-80 35 -91 56z" />
<glyph unicode="&#xa8;" horiz-adv-x="723" d="M143 1159q0 41 46 78q43 35 85 35q58 0 80 -29q0 -41 -31 -101q-47 -91 -49 -95q-16 -11 -30 -11q-26 0 -63.5 47t-37.5 76zM564 1119q0 54 34 102q38 53 90 53q12 0 25 -4q14 -43 14 -84q0 -96 -76 -150q-8 -2 -15 -2q-24 0 -71 64q-1 10 -1 21z" />
<glyph unicode="&#xa9;" horiz-adv-x="1599" d="M178 596q0 381 238 643q129 142 311.5 225t371.5 83q21 0 42 -1q61 45 129 45q90 0 184 -84q213 -191 213 -526q0 -186 -77 -364t-216 -300q-237 -208 -315 -260q-194 -129 -379 -129q-248 0 -385 218q-117 186 -117 450zM293 590q0 -102 35 -195q57 -152 117 -206 q75 -70 225 -70q183 0 362 133q147 109 268 287q-149 -179 -389 -179q-153 0 -271 98q-126 103 -126 253q0 118 87 220q80 95 198 136q41 16 81 31q49 18 85 18q52 0 89.5 -45t37.5 -98q0 -78 -50 -115q-43 35 -96 35q-75 0 -171 -75q-101 -78 -101 -148q0 -101 213 -101 q192 0 401 129q38 -6 51 -54q3 -11 11 -81q92 92 145 240q51 140 51 278q0 133 -49 195q-113 143 -254 143q-33 0 -65 -8l49 -74l-37 -24q-32 0 -62 24l-49 49h-16q-292 4 -533 -251q-237 -250 -237 -545z" />
<glyph unicode="&#xaa;" horiz-adv-x="735" d="M86 1219q0 42 23 102q41 106 166 135q54 12 227 12q29 22 39 74l10 86q-16 10 -39 10q-26 0 -75 -20.5t-75 -20.5q-45 0 -69 56q0 135 74 147q26 -10 59 -10q34 0 100.5 14.5t100.5 14.5q48 0 78 -33.5t30 -83.5q0 -46 -61.5 -177t-61.5 -198q0 -53 25 -104l37 37v-8 q-2 -30 21.5 -53.5l45.5 -45.5q0 -16 -55 -41q-223 -104 -385 -104q-70 0 -131 18q-84 84 -84 193zM219 1210q55 -18 125 -18t133 18v13q-28 65 -104 65q-103 0 -154 -78z" />
<glyph unicode="&#xab;" horiz-adv-x="1411" d="M100 475q0 21 2 45q89 132 277 330q217 229 289 321q51 -51 51 -116q0 -31 -14 -56q-17 -32 -230 -254q-80 -84 -115 -125q-62 -73 -98 -137q209 -53 368 -53q45 0 87 4q53 -35 53 -86q0 -12 -4 -24q-113 -39 -283 -39q-217 0 -282 14q-49 11 -77 71q-24 49 -24 105z M799 621q0 88 63 180q34 48 135 155q92 96 125 154q64 -35 64 -84q0 -39 -53 -113q-26 -44 -72 -110l-98 -111q63 -35 234 -66q159 -28 233 -81q34 -8 34 -51q0 -37 -22 -60q-37 -18 -84 -18q-49 0 -166 28t-188 28q-18 0 -53.5 -4.5t-53.5 -4.5q-98 0 -98 158z" />
<glyph unicode="&#xad;" horiz-adv-x="1018" d="M49 731q43 23 74 23q41 0 74 -35q17 -1 37 -1q98 0 288.5 41.5t286.5 41.5q143 0 235 -82v-62l-36 -49q-64 10 -134 10q-114 0 -338 -43t-337 -43q-33 0 -64 3q-39 26 -60 88q-2 8 -26 108z" />
<glyph unicode="&#xae;" horiz-adv-x="1544" d="M86 635q0 328 165 647q186 358 470 451q31 10 63 10q64 0 190.5 -81t200.5 -81q18 0 37 4q396 -340 396 -725q0 -336 -308 -628q-303 -287 -641 -287q-292 0 -441 206q-132 182 -132 484zM225 575q0 -192 97 -325q108 -148 294 -148q257 0 631 308q106 88 178 237t72 285 q0 43 -2 51q-12 46 -63 146q-48 94 -82 141q-42 59 -112 120q-81 72 -136 85q-57 6 -115 13q-82 12 -94 48q-14 2 -33 2q-135 0 -316 -156t-233 -321q-86 -273 -86 -486zM426 494q0 32 11.5 94t11.5 94q0 300 1 326q10 246 59 290.5t120 44.5q28 0 84 -4t84 -4q98 0 204 23 q152 -70 152 -242q0 -152 -88 -260q-68 -84 -223 -174q-13 -18 -13 -39q0 -26 62 -121h15q53 -2 141 28q95 32 139 34l84 -111q-83 -46 -166 -93q-113 -58 -170 -58q-23 0 -31 4q-21 10 -65 48q-154 136 -154 367q0 52 10 101q20 33 62 42q62 13 73 19q110 58 197 234 q-29 29 -57 35q-10 2 -66 2q-37 0 -108 16t-107 16q-55 0 -104 -32q39 -354 39 -451q0 -254 -101 -385q-96 51 -96 156z" />
<glyph unicode="&#xaf;" />
<glyph unicode="&#xb0;" horiz-adv-x="772" d="M143 1288q0 44 23 82q104 170 317 170q108 0 192 -53q36 -22 67 -61q38 -46 38 -80q0 -139 -102.5 -234.5t-241.5 -95.5q-117 0 -203 77q-90 79 -90 195zM309 1270q0 -121 156 -121q76 0 130 55.5t54 131.5q0 14 -2 30q-125 41 -164 41q-67 0 -117 -34q-57 -39 -57 -103z " />
<glyph unicode="&#xb1;" horiz-adv-x="1503" d="M84 389q0 12 2 25q44 27 209 35q235 11 467 63q-47 117 -62 221q-30 6 -71 6q-42 0 -125 -7t-125 -7q-180 0 -232 119q-10 23 -10 37q0 28 54 40q72 16 79 21q68 -37 191 -37h203q23 56 31 232q7 150 67 223q8 3 16 3q38 0 70 -65q-4 -37 -30 -132q-23 -83 -23 -134 q0 -57 28 -102q38 0 114 11t114 11q61 0 104 -22q15 -25 15 -53q0 -11 -1.5 -35t-1.5 -35q-28 -21 -71 -28q-31 -5 -81 -2l-77 3q-98 0 -139 -47q0 -26 16 -76.5t16 -76.5q0 -41 -32 -68q209 10 327 10q238 0 398 -35q3 -9 23 -37q16 -22 16 -42q0 -9 -2 -19 q-50 -49 -119 -49q-29 0 -83.5 13t-82.5 13q-163 0 -485 -50t-484 -50q-116 0 -148 10q-75 23 -75 113z" />
<glyph unicode="&#xb2;" horiz-adv-x="776" d="M94 1559v22q209 139 338 139q74 0 128 -49t54 -123q0 -55 -43 -160t-43 -157q0 -105 193 -105q63 -106 63 -155q0 -15 -2 -29q-14 -12 -26 -12q-14 0 -43 43t-54 43q-37 18 -110 27q-80 10 -111 22q-15 -12 -55 -91q-34 -67 -59 -67q-14 0 -33 11q-193 114 -193 258 q0 24 8 49q36 25 119 32q99 8 122 18q47 21 67 97q18 53 49 160q-14 8 -35 8q-40 0 -139 -53t-131 -53q-67 0 -64 125zM244 1120q0 -21 18 -37t39 -16q16 0 33 30q16 26 16 42q0 22 -31 22q-6 0 -17.5 -2t-17.5 -2q-40 0 -40 -37z" />
<glyph unicode="&#xb3;" horiz-adv-x="670" d="M102 1579q0 18 4 39q48 47 130 47q123 0 214 -57q107 -67 107 -181q0 -63 -25 -107q-10 -20 -69 -95q151 -76 209 -209q0 -90 -49 -123l-56 -8q-36 -8 -43 -29q-174 -22 -194 -22q-62 0 -108 25q-57 30 -57 86q0 13 1.5 37.5t1.5 33.5q34 34 120 39q-32 -2 126 -2 q-57 42 -113 84q-63 57 -63 118q0 15 4 31q88 59 92 62q55 45 55 86q-28 20 -110 30q-90 12 -120 26q-57 26 -57 89z" />
<glyph unicode="&#xb4;" horiz-adv-x="639" d="M156 1102q0 62 18 94q31 55 199 250q101 117 264 164q-17 -60 -34 -119q-22 -62 -68 -105l-142 -118q-78 -74 -78 -160q0 -41 17 -92q-7 -5 -45 -47q-29 -33 -51 -33q-19 0 -41 20q-39 76 -39 146z" />
<glyph unicode="&#xb5;" />
<glyph unicode="&#xb8;" horiz-adv-x="772" d="M330 -455q0 17 12 35q23 11 183 24q128 10 128 51q0 38 -121.5 158t-121.5 191q0 19 4 35q43 31 75 31q13 0 25 -4q19 -56 150 -200q116 -128 116 -204q0 -110 -136 -165q-26 -11 -230 -60q22 6 32 14l-70 38q-46 27 -46 56z" />
<glyph unicode="&#xb9;" horiz-adv-x="848" d="M63 1470q56 140 332 222q131 -52 131 -254v1l-1 -2l-1 -10l-3 -44l-15 -183q33 -26 78 -26q32 0 93.5 18t92.5 18q65 0 92 -84q-30 -76 -121 -93q-80 -6 -160 -13q-87 -12 -112 -78q-37 33 -88 33q-26 0 -76.5 -12.5t-75.5 -12.5q-35 0 -63.5 33.5t-28.5 69.5 q0 59 108 88q129 35 150 59l13 283l-12 1q-39 0 -124.5 -49t-121.5 -49q-56 0 -87 84z" />
<glyph unicode="&#xba;" horiz-adv-x="477" />
<glyph unicode="&#xbb;" horiz-adv-x="1456" d="M158 1167q0 43 16 99q67 -87 194 -126q3 -1 232 -50q164 -35 213 -95q35 -43 35 -125q0 -30 -10 -108q-199 -270 -492 -381q-33 25 -33 76q0 41 21 84q207 86 405 307q-57 54 -218 90q-198 45 -246 67q-117 53 -117 162zM909 1192q0 23 16 67q21 59 23 68q39 -11 80 -81 q44 -74 80 -91q37 -37 221 -138q142 -78 184 -181q0 -114 -76 -235q-46 -73 -157 -195q-29 -6 -93 -54q-59 -43 -97 -43q-31 0 -56 23q-8 26 -8 51q0 55 53 97q29 22 107 59q67 31 82 51l147 196q-250 150 -293 179q-213 146 -213 227z" />
<glyph unicode="&#xbc;" horiz-adv-x="1620" d="M84 43v123q436 461 629 656q359 362 661 622q17 6 33 6q32 0 55 -24t23 -56q0 -3 -11 -27q-50 -117 -194 -233q-70 -56 -204 -177q-15 -19 -46 -54q-66 -63 -197 -190q-280 -271 -328 -320q-185 -186 -310 -338zM291 1442q0 94 51 149q55 0 98 -86q-8 -43 -8 -96 q0 -48 10.5 -144.5t10.5 -144.5q0 -98 -37 -155q-52 0 -79 69q-16 58 -32 115q8 29 8 65q0 38 -11 114t-11 114zM930 377q0 131 114 254t244 137q37 -37 37 -74q0 -45 -98 -138q-102 -98 -111 -144q19 -4 37 -4q42 0 111 29q76 32 110 36q30 47 58 168q27 114 65 164 q86 -35 86 -121q0 -25 -8 -73.5t-8 -73.5q0 -93 102 -125q4 -13 4 -23q0 -45 -90 -76q-20 13 -37 13q-33 0 -53 -54q0 -1 -20 -82q34 -90 34 -145q0 -80 -59 -137q-50 0 -86.5 36t-36.5 87v221q-37 0 -109.5 -18.5t-109.5 -18.5q-77 0 -126.5 43t-49.5 119z" />
<glyph unicode="&#xbd;" horiz-adv-x="1784" d="M84 135q0 17 4 33q174 203 598 557q416 347 594 561q26 80 46 114q34 59 89 83q41 1 57 -43q22 -61 29 -68q-38 -152 -188 -321q-76 -86 -279 -269q-445 -402 -897 -774q-53 53 -53 127zM260 1016l86 614q16 29 35 29q16 0 46 -32q40 -45 42 -46q2 -29 2 -57 q0 -79 -37 -231t-37 -230q0 -49 11 -96q-23 -68 -68 -68q-23 0 -49 49q-15 34 -31 68zM1083 549q0 73 129 121q156 58 179 88l153 16q144 0 144 -192q0 -226 -89 -389q78 0 145 -38q72 -41 101 -110v-37q-41 2 -86 2q-86 0 -258 -13t-258 -13q-1 15 -13.5 44.5t-12.5 45.5 q0 18 14 32q138 40 227 187q44 74 117 280q-31 17 -62 17q-46 0 -150 -69.5t-157 -69.5q-44 0 -81 27q-42 29 -42 71z" />
<glyph unicode="&#xbe;" horiz-adv-x="1577" d="M57 1161l13 62q32 4 75 4q34 0 101.5 -4t101.5 -4q168 0 250 90q-45 35 -137 50q-108 19 -139 33q-70 31 -93 113q7 51 85 131q95 97 112 127q-12 9 -25 9t-42 -19.5t-46 -19.5q-41 0 -65 43q-21 36 -21 79t15 80q104 60 207 60q81 0 129.5 -51.5t48.5 -133.5 q0 -72 -62 -159q-14 -19 -114 -133q32 -33 109 -69q85 -39 113 -62q54 -44 60 -115q-55 -150 -196 -209q-30 7 -82 7q-33 0 -97.5 -4t-96.5 -4q-156 0 -204 99zM188 489v74q243 230 693 563q534 396 708 543l49 -49q4 -23 4 -43q0 -63 -90 -227l-61 36l-1155 -958 q-19 -16 -41 -16q-27 0 -59 28q-24 25 -48 49zM874 406q0 130 114 253t245 138q37 -37 37 -74q0 -45 -98 -138q-102 -98 -111 -145q18 -4 37 -4q41 0 111 30q76 32 110 36q30 47 58 167q27 114 65 165q86 -35 86 -121q0 -25 -8.5 -74t-8.5 -74q0 -92 103 -125q4 -12 4 -22 q0 -45 -90 -76q-21 12 -37 12q-33 0 -53 -54q-10 -40 -21 -81q35 -90 35 -145q0 -80 -59 -137q-50 0 -86.5 35.5t-36.5 86.5v222q-37 0 -109.5 -18.5t-109.5 -18.5q-79 0 -128 42t-49 120z" />
<glyph unicode="&#xbf;" horiz-adv-x="1067" d="M76 -422l86 148q194 -97 516 -97q243 0 243 82q0 61 -185 315.5t-185 350.5q0 98 94 98t107 -61q-9 -31 -9 -62q0 -96 92 -213l170 -200q92 -121 92 -226q0 -70 -49 -130.5t-118 -76.5q-182 -43 -383 -43q-299 0 -471 115zM561 840q0 -6 8 49q10 68 39.5 93.5t100.5 25.5 q28 0 57 -9q65 -79 65 -147t-65 -111q-21 29 -120 40q-85 10 -85 59z" />
<glyph unicode="&#xc0;" horiz-adv-x="1577" d="M209 98q11 28 124 233q77 141 85 247q58 8 97 75q9 17 50 121l-49 62q131 88 303 348q174 264 299 352q94 -84 122 -278l22 -316l16 -205q21 2 115 14q71 9 116 9q93 0 174 -35q-19 -66 -109 -100q-52 -19 -176 -38q-111 -16 -143 -34q0 -201 -26 -295q65 -27 65 -80 q0 -40 -24 -74q-26 -38 -64 -38q-76 0 -76 255q0 38 2 90t2 58q0 52 2 30q-2 16 -17 16q-67 0 -243 -41q-208 -49 -262 -56l-307 -418q-32 0 -58 36zM776 2261q163 -47 264 -164q168 -195 199 -250q18 -32 18 -94q0 -49 -18 -100q-23 -66 -62 -66q-22 0 -51 33 q-38 42 -45 47q17 51 17 92q0 85 -78 160q-71 60 -142 119q-47 44 -68 104q-17 60 -34 119zM811 664l270 24q60 5 60 135q0 72 -23.5 215.5t-23.5 214.5z" />
<glyph unicode="&#xc1;" horiz-adv-x="1577" d="M209 98q11 28 124 233q77 141 85 247q58 8 97 75q9 17 50 121l-49 62q131 88 303 348q174 264 299 352q94 -84 122 -278l22 -316l16 -205q21 2 115 14q71 9 116 9q93 0 174 -35q-19 -66 -109 -100q-52 -19 -176 -38q-111 -16 -143 -34q0 -201 -26 -295q65 -27 65 -80 q0 -40 -24 -74q-26 -38 -64 -38q-76 0 -76 255q0 38 2 90t2 58q0 52 2 30q-2 16 -17 16q-67 0 -243 -41q-208 -49 -262 -56l-307 -418q-32 0 -58 36zM811 664l270 24q60 5 60 135q0 72 -23.5 215.5t-23.5 214.5zM983 1743q0 62 18 94q31 55 199 250q101 117 264 164 q-17 -60 -34 -119q-22 -62 -68 -105l-142 -118q-78 -74 -78 -160q0 -41 17 -92q-7 -5 -45 -47q-29 -33 -51 -33q-19 0 -41 20q-39 76 -39 146z" />
<glyph unicode="&#xc2;" horiz-adv-x="1577" d="M209 98q11 28 124 233q77 141 85 247q58 8 97 75q9 17 50 121l-49 62q131 88 303 348q174 264 299 352q94 -84 122 -278l22 -316l16 -205q21 2 115 14q71 9 116 9q93 0 174 -35q-19 -66 -109 -100q-52 -19 -176 -38q-111 -16 -143 -34q0 -201 -26 -295q65 -27 65 -80 q0 -40 -24 -74q-26 -38 -64 -38q-76 0 -76 255q0 38 2 90t2 58q0 52 2 30q-2 16 -17 16q-67 0 -243 -41q-208 -49 -262 -56l-307 -418q-32 0 -58 36zM711 1530q35 53 178 227q114 138 160 240q12 6 26 6q52 0 86 -45q-6 -24 -6 -49q0 -82 68 -169q29 -37 127 -132 q69 -67 69 -96q-10 -17 -20 -57q-91 32 -172 114q-67 79 -135 158l-51 -10q-101 -151 -113 -167q-78 -103 -143 -136q-35 37 -47 53q-25 34 -27 63zM811 664l270 24q60 5 60 135q0 72 -23.5 215.5t-23.5 214.5z" />
<glyph unicode="&#xc3;" horiz-adv-x="1577" d="M209 98q11 28 124 233q77 141 85 247q58 8 97 75q9 17 50 121l-49 62q131 88 303 348q174 264 299 352q94 -84 122 -278l22 -316l16 -205q21 2 115 14q71 9 116 9q93 0 174 -35q-19 -66 -109 -100q-52 -19 -176 -38q-111 -16 -143 -34q0 -201 -26 -295q65 -27 65 -80 q0 -40 -24 -74q-26 -38 -64 -38q-76 0 -76 255q0 38 2 90t2 58q0 52 2 30q-2 16 -17 16q-67 0 -243 -41q-208 -49 -262 -56l-307 -418q-32 0 -58 36zM551 1829q0 33 12 62q105 104 215 142q42 15 252 54l86 -86l13 -172q40 14 176 116q110 84 204 81h13q45 -23 45 -80 q0 -25 -21 -105q-15 2 -29 2q-97 0 -217 -113.5t-206 -113.5q-19 0 -39 4q-48 31 -53 141q-5 121 -33 154q-158 -63 -190 -79q-110 -53 -167 -117q-61 36 -61 110zM811 664l270 24q60 5 60 135q0 72 -23.5 215.5t-23.5 214.5z" />
<glyph unicode="&#xc4;" horiz-adv-x="1577" d="M209 98q11 28 124 233q77 141 85 247q58 8 97 75q9 17 50 121l-49 62q131 88 303 348q174 264 299 352q94 -84 122 -278l22 -316l16 -205q21 2 115 14q71 9 116 9q93 0 174 -35q-19 -66 -109 -100q-52 -19 -176 -38q-111 -16 -143 -34q0 -201 -26 -295q65 -27 65 -80 q0 -40 -24 -74q-26 -38 -64 -38q-76 0 -76 255q0 38 2 90t2 58q0 52 2 30q-2 16 -17 16q-67 0 -243 -41q-208 -49 -262 -56l-307 -418q-32 0 -58 36zM788 1722q0 41 46 78q43 35 85 35q58 0 80 -29q0 -41 -31 -101q-47 -91 -49 -95q-16 -11 -30 -11q-26 0 -63.5 47t-37.5 76 zM811 664l270 24q60 5 60 135q0 72 -23.5 215.5t-23.5 214.5zM1209 1682q0 54 34 102q38 53 90 53q12 0 25 -4q14 -43 14 -84q0 -96 -76 -150q-8 -2 -15 -2q-24 0 -71 64q-1 10 -1 21z" />
<glyph unicode="&#xc5;" horiz-adv-x="1577" d="M209 98q11 28 124 233q77 141 85 247q58 8 97 75q9 17 50 121l-49 62q131 88 303 348q174 264 299 352q94 -84 122 -278l22 -316l16 -205q21 2 115 14q71 9 116 9q93 0 174 -35q-19 -66 -109 -100q-52 -19 -176 -38q-111 -16 -143 -34q0 -201 -26 -295q65 -27 65 -80 q0 -40 -24 -74q-26 -38 -64 -38q-76 0 -76 255q0 38 2 90t2 58q0 52 2 30q-2 16 -17 16q-67 0 -243 -41q-208 -49 -262 -56l-307 -418q-32 0 -58 36zM811 664l270 24q60 5 60 135q0 72 -23.5 215.5t-23.5 214.5zM924 1739q0 67 75 114q65 42 136 42q57 0 116 -31 q70 -37 70 -90q0 -86 -63.5 -146.5t-149.5 -60.5q-73 0 -128.5 49.5t-55.5 122.5zM1026 1727q0 -76 99 -76q49 0 83 37t32 85l-1 13q-77 25 -102 25q-42 0 -74 -21q-37 -24 -37 -63z" />
<glyph unicode="&#xc6;" />
<glyph unicode="&#xc7;" horiz-adv-x="1288" d="M320 645q0 287 127 480q148 223 421 223q90 0 157 -21q99 -31 99 -97q0 -91 -108 -91q-29 0 -86 7t-86 7q-153 0 -257 -133q-92 -119 -102 -279q-2 -36 -2 -75q0 -129 27 -267q37 -189 106 -223q29 -14 64 -14q65 0 280.5 113.5t319.5 113.5q94 0 94 -47q0 -10 -4 -18 q-86 -26 -371 -192q-249 -144 -346 -144q-133 0 -254 262q-79 172 -79 395zM541 -455q0 17 12 35q23 11 183 24q128 10 128 51q0 38 -121.5 158t-121.5 191q0 19 4 35q43 31 75 31q13 0 25 -4q19 -56 150 -200q116 -128 116 -204q0 -110 -136 -165q-26 -11 -230 -60 q22 6 32 14l-70 38q-46 27 -46 56z" />
<glyph unicode="&#xc8;" horiz-adv-x="1333" d="M193 4q172 90 172 385q0 127 -34 380.5t-34 381.5q0 21 3 64t3 64q0 42 37 67q32 22 76 22q88 0 96 -74q129 0 385 50t387 50q138 0 138 -83q0 -7 -13 -78q-57 14 -123 14q-121 0 -357.5 -70.5t-358.5 -70.5q-36 0 -70 4q-35 -45 -35 -131q0 -17 16 -199q45 -10 101 -10 q63 0 188.5 16.5t188.5 16.5q151 0 241 -74q-113 -51 -358 -80.5t-355 -79.5l13 -393q362 76 520 76q147 0 266 -39q0 -50 -59 -70q-26 -8 -101 -16q-300 -31 -427 -59q-235 -51 -396 -162q-48 0 -110 98zM389 2073q163 -47 264 -164q168 -195 199 -250q18 -32 18 -94 q0 -49 -18 -100q-23 -66 -62 -66q-22 0 -51 33q-38 42 -45 47q17 51 17 92q0 85 -78 160q-71 60 -142 119q-47 44 -68 104q-17 60 -34 119z" />
<glyph unicode="&#xc9;" horiz-adv-x="1333" d="M193 4q172 90 172 385q0 127 -34 380.5t-34 381.5q0 21 3 64t3 64q0 42 37 67q32 22 76 22q88 0 96 -74q129 0 385 50t387 50q138 0 138 -83q0 -7 -13 -78q-57 14 -123 14q-121 0 -357.5 -70.5t-358.5 -70.5q-36 0 -70 4q-35 -45 -35 -131q0 -17 16 -199q45 -10 101 -10 q63 0 188.5 16.5t188.5 16.5q151 0 241 -74q-113 -51 -358 -80.5t-355 -79.5l13 -393q362 76 520 76q147 0 266 -39q0 -50 -59 -70q-26 -8 -101 -16q-300 -31 -427 -59q-235 -51 -396 -162q-48 0 -110 98zM568 1512q0 62 18 94q31 55 199 250q101 117 264 164 q-17 -60 -34 -119q-22 -62 -68 -105l-142 -118q-78 -74 -78 -160q0 -41 17 -92q-7 -5 -45 -47q-29 -33 -51 -33q-19 0 -41 20q-39 76 -39 146z" />
<glyph unicode="&#xca;" horiz-adv-x="1333" d="M193 4q172 90 172 385q0 127 -34 380.5t-34 381.5q0 21 3 64t3 64q0 42 37 67q32 22 76 22q88 0 96 -74q129 0 385 50t387 50q138 0 138 -83q0 -7 -13 -78q-57 14 -123 14q-121 0 -357.5 -70.5t-358.5 -70.5q-36 0 -70 4q-35 -45 -35 -131q0 -17 16 -199q45 -10 101 -10 q63 0 188.5 16.5t188.5 16.5q151 0 241 -74q-113 -51 -358 -80.5t-355 -79.5l13 -393q362 76 520 76q147 0 266 -39q0 -50 -59 -70q-26 -8 -101 -16q-300 -31 -427 -59q-235 -51 -396 -162q-48 0 -110 98zM430 1491q35 53 178 227q114 138 160 240q12 6 26 6q52 0 86 -45 q-6 -24 -6 -49q0 -82 68 -169q29 -37 127 -132q69 -67 69 -96q-10 -17 -20 -57q-91 32 -172 114q-67 79 -135 158l-51 -10q-101 -151 -113 -167q-78 -103 -143 -136q-35 37 -47 53q-25 34 -27 63z" />
<glyph unicode="&#xcb;" horiz-adv-x="1333" d="M193 4q172 90 172 385q0 127 -34 380.5t-34 381.5q0 21 3 64t3 64q0 42 37 67q32 22 76 22q88 0 96 -74q129 0 385 50t387 50q138 0 138 -83q0 -7 -13 -78q-57 14 -123 14q-121 0 -357.5 -70.5t-358.5 -70.5q-36 0 -70 4q-35 -45 -35 -131q0 -17 16 -199q45 -10 101 -10 q63 0 188.5 16.5t188.5 16.5q151 0 241 -74q-113 -51 -358 -80.5t-355 -79.5l13 -393q362 76 520 76q147 0 266 -39q0 -50 -59 -70q-26 -8 -101 -16q-300 -31 -427 -59q-235 -51 -396 -162q-48 0 -110 98zM522 1569q0 41 46 78q43 35 85 35q58 0 80 -29q0 -41 -31 -101 q-47 -91 -49 -95q-16 -11 -30 -11q-26 0 -63.5 47t-37.5 76zM943 1529q0 54 34 102q38 53 90 53q12 0 25 -4q14 -43 14 -84q0 -96 -76 -150q-8 -2 -15 -2q-24 0 -71 64q-1 10 -1 21z" />
<glyph unicode="&#xcc;" horiz-adv-x="1206" d="M104 80q24 53 102 65l134 14q70 16 84 81q4 40 16 119q21 112 72 284q70 235 70 387q0 64 -9 129q-8 -2 -60 -16q-36 -10 -60 -10q-85 0 -76 124q409 187 631 187q159 0 278 -76q-68 -40 -290 -79q-199 -34 -275 -105q-20 -213 -77 -487q-6 -28 -109 -482q57 -36 172 -44 q92 -2 184 -5q-66 -154 -324 -154q-21 0 -63.5 2.5t-63.5 2.5q-39 0 -115 -15.5t-114 -15.5q-80 0 -107 94zM461 2028q163 -47 264 -164q168 -195 199 -250q18 -32 18 -94q0 -49 -18 -100q-23 -66 -62 -66q-22 0 -51 33q-38 42 -45 47q17 51 17 92q0 85 -78 160 q-71 60 -142 119q-47 44 -68 104q-17 60 -34 119z" />
<glyph unicode="&#xcd;" horiz-adv-x="1206" d="M104 80q24 53 102 65l134 14q70 16 84 81q4 40 16 119q21 112 72 284q70 235 70 387q0 64 -9 129q-8 -2 -60 -16q-36 -10 -60 -10q-85 0 -76 124q409 187 631 187q159 0 278 -76q-68 -40 -290 -79q-199 -34 -275 -105q-20 -213 -77 -487q-6 -28 -109 -482q57 -36 172 -44 q92 -2 184 -5q-66 -154 -324 -154q-21 0 -63.5 2.5t-63.5 2.5q-39 0 -115 -15.5t-114 -15.5q-80 0 -107 94zM475 1512q0 62 18 94q31 55 199 250q101 117 264 164q-17 -60 -34 -119q-22 -62 -68 -105l-142 -118q-78 -74 -78 -160q0 -41 17 -92q-7 -5 -45 -47 q-29 -33 -51 -33q-19 0 -41 20q-39 76 -39 146z" />
<glyph unicode="&#xce;" horiz-adv-x="1206" d="M104 80q24 53 102 65l134 14q70 16 84 81q4 40 16 119q21 112 72 284q70 235 70 387q0 64 -9 129q-8 -2 -60 -16q-36 -10 -60 -10q-85 0 -76 124q409 187 631 187q159 0 278 -76q-68 -40 -290 -79q-199 -34 -275 -105q-20 -213 -77 -487q-6 -28 -109 -482q57 -36 172 -44 q92 -2 184 -5q-66 -154 -324 -154q-21 0 -63.5 2.5t-63.5 2.5q-39 0 -115 -15.5t-114 -15.5q-80 0 -107 94zM447 1548q35 53 178 227q114 138 160 240q12 6 26 6q52 0 86 -45q-6 -24 -6 -49q0 -82 68 -169q29 -37 127 -132q69 -67 69 -96q-10 -17 -20 -57q-91 32 -172 114 q-67 79 -135 158l-51 -10q-101 -151 -113 -167q-78 -103 -143 -136q-35 37 -47 53q-25 34 -27 63z" />
<glyph unicode="&#xcf;" horiz-adv-x="1206" d="M104 80q24 53 102 65l134 14q70 16 84 81q4 40 16 119q21 112 72 284q70 235 70 387q0 64 -9 129q-8 -2 -60 -16q-36 -10 -60 -10q-85 0 -76 124q409 187 631 187q159 0 278 -76q-68 -40 -290 -79q-199 -34 -275 -105q-20 -213 -77 -487q-6 -28 -109 -482q57 -36 172 -44 q92 -2 184 -5q-66 -154 -324 -154q-21 0 -63.5 2.5t-63.5 2.5q-39 0 -115 -15.5t-114 -15.5q-80 0 -107 94zM510 1659q0 41 46 78q43 35 85 35q58 0 80 -29q0 -41 -31 -101q-47 -91 -49 -95q-16 -11 -30 -11q-26 0 -63.5 47t-37.5 76zM931 1619q0 54 34 102q38 53 90 53 q12 0 25 -4q14 -43 14 -84q0 -96 -76 -150q-8 -2 -15 -2q-24 0 -71 64q-1 10 -1 21z" />
<glyph unicode="&#xd1;" horiz-adv-x="1362" d="M115 -43q143 429 197.5 660t79.5 466q5 95 18 226q7 28 39 28q21 0 47 -16q1 -13 18.5 -36.5t18.5 -37.5q11 10 45 80q27 57 53 57q16 0 37 -14q45 -130 98 -450q52 -309 87 -431q92 -317 228 -317q158 0 207 548q19 218 19 675q0 30 22.5 50.5t52.5 20.5q47 0 60 -59 q10 -45 10 -283q0 -361 -52 -635q-88 -466 -302 -466q-158 0 -268 165q-55 82 -140 304q-34 88 -84 251q-47 -213 -167 -472q-16 -34 -226 -449l-15 -1q-45 -4 -64 47q-5 11 -19 89zM336 1868q0 33 12 62q105 104 215 142q42 15 252 54l86 -86l13 -172q40 14 176 116 q110 84 204 81h13q45 -23 45 -80q0 -25 -21 -105q-15 2 -29 2q-97 0 -217 -113.5t-206 -113.5q-19 0 -39 4q-48 31 -53 141q-5 121 -33 154q-158 -63 -190 -79q-110 -53 -167 -117q-61 36 -61 110z" />
<glyph unicode="&#xd2;" horiz-adv-x="1362" d="M199 147q0 447 282 787q-4 37 -4 70q0 170 114.5 289.5t283.5 119.5q177 0 380 -219q199 -216 199 -395q0 -124 -121 -260q-137 -154 -429 -343q-327 -212 -490 -212q-78 0 -142 42q-73 47 -73 121zM336 202q0 -40 5 -53q10 -24 44 -24q95 0 439 213q316 197 421 297 q88 84 88 168q0 38 -16 78q-56 141 -165 239q-123 111 -261 111q-143 0 -225 -137q96 -39 96 -93q0 -31 -73 -121.5t-73 -134.5q0 -22 13 -45l-74 25q-108 -169 -147 -248q-72 -149 -72 -275zM561 2028q163 -47 264 -164q168 -195 199 -250q18 -32 18 -94q0 -49 -18 -100 q-23 -66 -62 -66q-22 0 -51 33q-38 42 -45 47q17 51 17 92q0 85 -78 160q-71 60 -142 119q-47 44 -68 104q-17 60 -34 119z" />
<glyph unicode="&#xd3;" horiz-adv-x="1362" d="M199 147q0 447 282 787q-4 37 -4 70q0 170 114.5 289.5t283.5 119.5q177 0 380 -219q199 -216 199 -395q0 -124 -121 -260q-137 -154 -429 -343q-327 -212 -490 -212q-78 0 -142 42q-73 47 -73 121zM336 202q0 -40 5 -53q10 -24 44 -24q95 0 439 213q316 197 421 297 q88 84 88 168q0 38 -16 78q-56 141 -165 239q-123 111 -261 111q-143 0 -225 -137q96 -39 96 -93q0 -31 -73 -121.5t-73 -134.5q0 -22 13 -45l-74 25q-108 -169 -147 -248q-72 -149 -72 -275zM576 1512q0 62 18 94q31 55 199 250q101 117 264 164q-17 -60 -34 -119 q-22 -62 -68 -105l-142 -118q-78 -74 -78 -160q0 -41 17 -92q-7 -5 -45 -47q-29 -33 -51 -33q-19 0 -41 20q-39 76 -39 146z" />
<glyph unicode="&#xd4;" horiz-adv-x="1362" d="M199 147q0 447 282 787q-4 37 -4 70q0 170 114.5 289.5t283.5 119.5q177 0 380 -219q199 -216 199 -395q0 -124 -121 -260q-137 -154 -429 -343q-327 -212 -490 -212q-78 0 -142 42q-73 47 -73 121zM336 202q0 -40 5 -53q10 -24 44 -24q95 0 439 213q316 197 421 297 q88 84 88 168q0 38 -16 78q-56 141 -165 239q-123 111 -261 111q-143 0 -225 -137q96 -39 96 -93q0 -31 -73 -121.5t-73 -134.5q0 -22 13 -45l-74 25q-108 -169 -147 -248q-72 -149 -72 -275zM440 1491q35 53 178 227q114 138 160 240q12 6 26 6q52 0 86 -45q-6 -24 -6 -49 q0 -82 68 -169q29 -37 127 -132q69 -67 69 -96q-10 -17 -20 -57q-91 32 -172 114q-67 79 -135 158l-51 -10q-101 -151 -113 -167q-78 -103 -143 -136q-35 37 -47 53q-25 34 -27 63z" />
<glyph unicode="&#xd5;" horiz-adv-x="1362" d="M199 147q0 447 282 787q-4 37 -4 70q0 170 114.5 289.5t283.5 119.5q177 0 380 -219q199 -216 199 -395q0 -124 -121 -260q-137 -154 -429 -343q-327 -212 -490 -212q-78 0 -142 42q-73 47 -73 121zM293 1868q0 33 12 62q105 104 215 142q42 15 252 54l86 -86l13 -172 q40 14 176 116q110 84 204 81h13q45 -23 45 -80q0 -25 -21 -105q-15 2 -29 2q-97 0 -217 -113.5t-206 -113.5q-19 0 -39 4q-48 31 -53 141q-5 121 -33 154q-158 -63 -190 -79q-110 -53 -167 -117q-61 36 -61 110zM336 202q0 -40 5 -53q10 -24 44 -24q95 0 439 213 q316 197 421 297q88 84 88 168q0 38 -16 78q-56 141 -165 239q-123 111 -261 111q-143 0 -225 -137q96 -39 96 -93q0 -31 -73 -121.5t-73 -134.5q0 -22 13 -45l-74 25q-108 -169 -147 -248q-72 -149 -72 -275z" />
<glyph unicode="&#xd6;" horiz-adv-x="1362" d="M199 147q0 447 282 787q-4 37 -4 70q0 170 114.5 289.5t283.5 119.5q177 0 380 -219q199 -216 199 -395q0 -124 -121 -260q-137 -154 -429 -343q-327 -212 -490 -212q-78 0 -142 42q-73 47 -73 121zM336 202q0 -40 5 -53q10 -24 44 -24q95 0 439 213q316 197 421 297 q88 84 88 168q0 38 -16 78q-56 141 -165 239q-123 111 -261 111q-143 0 -225 -137q96 -39 96 -93q0 -31 -73 -121.5t-73 -134.5q0 -22 13 -45l-74 25q-108 -169 -147 -248q-72 -149 -72 -275zM544 1646q0 41 46 78q43 35 85 35q58 0 80 -29q0 -41 -31 -101q-47 -91 -49 -95 q-16 -11 -30 -11q-26 0 -63.5 47t-37.5 76zM965 1606q0 54 34 102q38 53 90 53q12 0 25 -4q14 -43 14 -84q0 -96 -76 -150q-8 -2 -15 -2q-24 0 -71 64q-1 10 -1 21z" />
<glyph unicode="&#xd7;" />
<glyph unicode="&#xd9;" horiz-adv-x="1315" d="M270 352q0 182 45 453q26 126 66 377q2 61 14 180q16 96 111 106q63 -49 63 -127q0 -19 -6 -38q-92 -290 -153 -932q-1 -15 -1 -30q0 -61 23 -125q29 -82 76 -89q14 -2 43 -2q266 0 412 448q58 178 121 591q7 71 30 206q11 45 51 45q50 0 79 -55q22 -45 22 -100 q0 -43 -16 -105q-13 -52 -27 -104q-44 -187 -89 -375q-51 -234 -51 -373q0 -194 115 -194q61 0 85 45t52 43q56 -43 68 -142q-12 -44 -81 -81q-64 -33 -114 -33q-93 0 -176.5 86.5t-85.5 179.5q-108 -129 -199 -182q-110 -64 -262 -64q-215 0 -215 391zM532 2028 q163 -47 264 -164q168 -195 199 -250q18 -32 18 -94q0 -49 -18 -100q-23 -66 -62 -66q-22 0 -51 33q-38 42 -45 47q17 51 17 92q0 85 -78 160q-71 60 -142 119q-47 44 -68 104q-17 60 -34 119z" />
<glyph unicode="&#xda;" horiz-adv-x="1323" d="M270 352q0 182 45 453q26 126 66 377q2 61 14 180q16 96 111 106q63 -49 63 -127q0 -19 -6 -38q-92 -290 -153 -932q-1 -15 -1 -30q0 -61 23 -125q29 -82 76 -89q14 -2 43 -2q266 0 412 448q58 178 121 591q7 71 30 206q11 45 51 45q50 0 79 -55q22 -45 22 -100 q0 -43 -16 -105q-13 -52 -27 -104q-44 -187 -89 -375q-51 -234 -51 -373q0 -194 115 -194q61 0 85 45t52 43q56 -43 68 -142q-12 -44 -81 -81q-64 -33 -114 -33q-93 0 -176.5 86.5t-85.5 179.5q-108 -129 -199 -182q-110 -64 -262 -64q-215 0 -215 391zM547 1512q0 62 18 94 q31 55 199 250q101 117 264 164q-17 -60 -34 -119q-22 -62 -68 -105l-142 -118q-78 -74 -78 -160q0 -41 17 -92q-7 -5 -45 -47q-29 -33 -51 -33q-19 0 -41 20q-39 76 -39 146z" />
<glyph unicode="&#xdb;" horiz-adv-x="1325" d="M270 352q0 182 45 453q26 126 66 377q2 61 14 180q16 96 111 106q63 -49 63 -127q0 -19 -6 -38q-92 -290 -153 -932q-1 -15 -1 -30q0 -61 23 -125q29 -82 76 -89q14 -2 43 -2q266 0 412 448q58 178 121 591q7 71 30 206q11 45 51 45q50 0 79 -55q22 -45 22 -100 q0 -43 -16 -105q-13 -52 -27 -104q-44 -187 -89 -375q-51 -234 -51 -373q0 -194 115 -194q61 0 85 45t52 43q56 -43 68 -142q-12 -44 -81 -81q-64 -33 -114 -33q-93 0 -176.5 86.5t-85.5 179.5q-108 -129 -199 -182q-110 -64 -262 -64q-215 0 -215 391zM491 1630 q35 53 178 227q114 138 160 240q12 6 26 6q52 0 86 -45q-6 -24 -6 -49q0 -82 68 -169q29 -37 127 -132q69 -67 69 -96q-10 -17 -20 -57q-91 32 -172 114q-67 79 -135 158l-51 -10q-101 -151 -113 -167q-78 -103 -143 -136q-35 37 -47 53q-25 34 -27 63z" />
<glyph unicode="&#xdc;" horiz-adv-x="1337" d="M270 352q0 182 45 453q26 126 66 377q2 61 14 180q16 96 111 106q63 -49 63 -127q0 -19 -6 -38q-92 -290 -153 -932q-1 -15 -1 -30q0 -61 23 -125q29 -82 76 -89q14 -2 43 -2q266 0 412 448q58 178 121 591q7 71 30 206q11 45 51 45q50 0 79 -55q22 -45 22 -100 q0 -43 -16 -105q-13 -52 -27 -104q-44 -187 -89 -375q-51 -234 -51 -373q0 -194 115 -194q61 0 85 45t52 43q56 -43 68 -142q-12 -44 -81 -81q-64 -33 -114 -33q-93 0 -176.5 86.5t-85.5 179.5q-108 -129 -199 -182q-110 -64 -262 -64q-215 0 -215 391zM563 1706q0 41 46 78 q43 35 85 35q58 0 80 -29q0 -41 -31 -101q-47 -91 -49 -95q-16 -11 -30 -11q-26 0 -63.5 47t-37.5 76zM984 1666q0 54 34 102q38 53 90 53q12 0 25 -4q14 -43 14 -84q0 -96 -76 -150q-8 -2 -15 -2q-24 0 -71 64q-1 10 -1 21z" />
<glyph unicode="&#xdd;" horiz-adv-x="1067" d="M170 1116q0 180 80 326q30 -7 56 -31q30 -26 30 -55q0 -12 -12 -189l-7 -90q0 -112 37 -208q50 -128 144 -128q79 0 211 138q92 96 165 268q100 235 128 283q14 4 28 4q84 0 107 -115q-159 -318 -221 -414q-136 -213 -320 -340q-5 -37 -40 -198q-26 -121 -26 -199 q0 -66 17 -119q19 1 40 25q27 33 34 37q41 -37 41 -78q0 -44 -56 -102q-62 -64 -71 -91h-10q-72 -3 -126 86q4 336 45 613q-130 78 -206 253q-68 157 -68 324zM420 1512q0 62 18 94q31 55 199 250q101 117 264 164q-17 -60 -34 -119q-22 -62 -68 -105l-142 -118 q-78 -74 -78 -160q0 -41 17 -92q-7 -5 -45 -47q-29 -33 -51 -33q-19 0 -41 20q-39 76 -39 146z" />
<glyph unicode="&#xde;" />
<glyph unicode="&#xdf;" />
<glyph unicode="&#xe0;" horiz-adv-x="887" d="M158 666q0 22 6 43q71 31 330 130q281 107 303 107q92 0 92 -102q0 -110 -66 -311q-68 -209 -73 -312q26 -39 69 -45q62 -7 78 -16q18 -35 18 -68q0 -69 -129 -178q-194 -14 -217 -14q-135 0 -234 53q-122 67 -122 192q0 95 89 159q80 58 179 58q72 0 133 -30 q97 160 115 389q-79 -15 -249 -108q-155 -83 -255 -89q-67 54 -67 142zM215 1657q163 -47 264 -164q168 -195 199 -250q18 -32 18 -94q0 -49 -18 -100q-23 -66 -62 -66q-22 0 -51 33q-38 42 -45 47q17 51 17 92q0 85 -78 160q-71 60 -142 119q-47 44 -68 104q-17 60 -34 119 zM392 127l1 -16q49 -52 142 -52q77 0 120 39q-37 17 -65 99q-41 18 -90 18q-112 0 -108 -88z" />
<glyph unicode="&#xe1;" horiz-adv-x="883" d="M117 666q0 -88 67 -142q100 6 255 89q170 93 249 108q-18 -229 -115 -389q-61 30 -133 30q-99 0 -179 -58q-89 -64 -89 -159q0 -125 122 -192q99 -53 234 -53q23 0 217 14q129 109 129 178q0 33 -18 68q-16 9 -78 16q-43 6 -69 45q5 103 73 312q66 201 66 311 q0 102 -92 102q-22 0 -303 -107q-259 -99 -330 -130q-6 -21 -6 -43zM351 127q-4 88 108 88q49 0 90 -18q17 -49 21 -57q15 -29 44 -42q-43 -39 -120 -39q-93 0 -142 52zM360 1159q0 61 19 94q33 57 199 250q101 117 264 164l-34 -118q-21 -60 -69 -105q-71 -60 -142 -119 q-77 -75 -77 -160q0 -41 17 -92q-9 -5 -45 -47q-28 -33 -52 -33q-18 0 -41 21q-39 76 -39 145z" />
<glyph unicode="&#xe2;" horiz-adv-x="928" d="M158 666q0 22 6 43q71 31 330 130q281 107 303 107q92 0 92 -102q0 -110 -66 -311q-68 -209 -73 -312q26 -39 69 -45q62 -7 78 -16q18 -35 18 -68q0 -69 -129 -178q-194 -14 -217 -14q-135 0 -234 53q-122 67 -122 192q0 95 89 159q80 58 179 58q72 0 133 -30 q97 160 115 389q-79 -15 -249 -108q-155 -83 -255 -89q-67 54 -67 142zM205 1081q35 53 178 227q114 138 160 240q12 6 26 6q52 0 86 -45q-6 -24 -6 -49q0 -82 68 -169q29 -37 127 -132q69 -67 69 -96q-10 -17 -20 -57q-91 32 -172 114q-67 79 -135 158l-51 -10 q-101 -151 -113 -167q-78 -103 -143 -136q-35 37 -47 53q-25 34 -27 63zM392 127l1 -16q49 -52 142 -52q77 0 120 39q-37 17 -65 99q-41 18 -90 18q-112 0 -108 -88z" />
<glyph unicode="&#xe3;" horiz-adv-x="979" d="M29 1239q0 33 12 62q105 104 215 142q42 15 252 54l86 -86l13 -172q40 14 176 116q110 84 204 81h13q45 -23 45 -80q0 -25 -21 -105q-15 2 -29 2q-97 0 -217 -113.5t-206 -113.5q-19 0 -39 4q-48 31 -53 141q-5 121 -33 154q-158 -63 -190 -79q-110 -53 -167 -117 q-61 36 -61 110zM158 666q0 22 6 43q71 31 330 130q281 107 303 107q92 0 92 -102q0 -110 -66 -311q-68 -209 -73 -312q26 -39 69 -45q62 -7 78 -16q18 -35 18 -68q0 -69 -129 -178q-194 -14 -217 -14q-135 0 -234 53q-122 67 -122 192q0 95 89 159q80 58 179 58 q72 0 133 -30q97 160 115 389q-79 -15 -249 -108q-155 -83 -255 -89q-67 54 -67 142zM392 127l1 -16q49 -52 142 -52q77 0 120 39q-37 17 -65 99q-41 18 -90 18q-112 0 -108 -88z" />
<glyph unicode="&#xe4;" horiz-adv-x="897" d="M158 666q0 22 6 43q71 31 330 130q281 107 303 107q92 0 92 -102q0 -110 -66 -311q-68 -209 -73 -312q26 -39 69 -45q62 -7 78 -16q18 -35 18 -68q0 -69 -129 -178q-194 -14 -217 -14q-135 0 -234 53q-122 67 -122 192q0 95 89 159q80 58 179 58q72 0 133 -30 q97 160 115 389q-79 -15 -249 -108q-155 -83 -255 -89q-67 54 -67 142zM241 1190q0 41 46 78q43 35 85 35q58 0 80 -29q0 -41 -31 -101q-47 -91 -49 -95q-16 -11 -30 -11q-26 0 -63.5 47t-37.5 76zM392 127l1 -16q49 -52 142 -52q77 0 120 39q-37 17 -65 99q-41 18 -90 18 q-112 0 -108 -88zM662 1150q0 54 34 102q38 53 90 53q12 0 25 -4q14 -43 14 -84q0 -96 -76 -150q-8 -2 -15 -2q-24 0 -71 64q-1 10 -1 21z" />
<glyph unicode="&#xe5;" horiz-adv-x="891" d="M158 666q0 22 6 43q71 31 330 130q281 107 303 107q92 0 92 -102q0 -110 -66 -311q-68 -209 -73 -312q26 -39 69 -45q62 -7 78 -16q18 -35 18 -68q0 -69 -129 -178q-194 -14 -217 -14q-135 0 -234 53q-122 67 -122 192q0 95 89 159q80 58 179 58q72 0 133 -30 q97 160 115 389q-79 -15 -249 -108q-155 -83 -255 -89q-67 54 -67 142zM392 127l1 -16q49 -52 142 -52q77 0 120 39q-37 17 -65 99q-41 18 -90 18q-112 0 -108 -88zM477 1194q0 67 75 114q65 42 136 42q57 0 116 -31q70 -37 70 -90q0 -86 -63.5 -146.5t-149.5 -60.5 q-73 0 -128.5 49.5t-55.5 122.5zM579 1182q0 -76 99 -76q49 0 83 37t32 85l-1 13q-77 25 -102 25q-42 0 -74 -21q-37 -24 -37 -63z" />
<glyph unicode="&#xe6;" horiz-adv-x="1679" d="M113 897q0 72 45 109q47 -17 94 -17q100 0 253 82q190 103 243 119q20 20 43 20q27 0 48 -35q18 -30 19 -59l12 -356q12 -5 37 -12q161 189 164 192q120 127 193 139q12 2 67 2q115 0 204 -36q114 -45 146 -138q1 -2 1 -17q0 -93 -95 -157q-147 -100 -176 -108l-442 -123 q-33 -27 -33 -72q0 -26 16.5 -75t16.5 -74q94 -152 319 -152q121 0 148 16l270 160q14 -29 14 -57q0 -53 -57 -108q-34 -32 -120 -88q-82 -54 -107 -79q-86 -16 -166 -16q-293 0 -375 201q0 49 -37 86q-266 -230 -471 -230q-76 0 -143 33q-35 174 -35 248q0 96 45 172 q52 90 141 90q37 0 107 -21.5t106 -21.5q45 0 90 25q74 161 74 479q-100 -19 -315 -141q-196 -111 -324 -117q-20 121 -20 137zM305 207l111 -12q72 21 145 43q92 28 89 91l-1 13q-28 0 -84 -1.5t-85 -1.5q-70 0 -138 15q-37 -37 -37 -147zM1067 698q176 25 253 46 q142 39 226 114h-61q-35 35 -101 35q-22 0 -66.5 -5t-66.5 -5q-139 -80 -184 -185z" />
<glyph unicode="&#xe7;" horiz-adv-x="1184" d="M154 195q0 178 198 379q144 146 351 268l25 1q79 4 173 -44l158 -92q-21 -62 -116 -62q-24 0 -72.5 3t-72.5 3q-129 0 -301 -143q-177 -147 -177 -272q0 -59 41 -99.5t100 -40.5q76 0 277 101.5t280 101.5q94 0 94 -68q0 -30 -12 -53q-434 -217 -647 -217q-115 0 -201 58 q-98 66 -98 176zM559 -455q0 17 12 35q23 11 183 24q128 10 128 51q0 38 -121.5 158t-121.5 191q0 19 4 35q43 31 75 31q13 0 25 -4q19 -56 150 -200q116 -128 116 -204q0 -110 -136 -165q-26 -11 -230 -60q22 6 32 14l-70 38q-46 27 -46 56z" />
<glyph unicode="&#xe8;" horiz-adv-x="1167" d="M238 551q88 15 205 123q125 115 188 135q104 33 233 33q105 0 203 -35q133 -48 133 -133q0 -51 -47 -111q-281 -166 -592 -166q-57 0 -117 6q-51 -36 -51 -98q0 -64 52 -103q46 -36 112 -36q93 0 293 81t285 81q49 0 80 -23q-340 -299 -619 -299q-157 0 -246 73 q-96 79 -96 232q0 23 2 67.5t2 67.5q0 70 -20 105zM496 1618q163 -47 264 -164q168 -195 199 -250q18 -32 18 -94q0 -49 -18 -100q-23 -66 -62 -66q-22 0 -51 33q-38 42 -45 47q17 51 17 92q0 85 -78 160q-71 60 -142 119q-47 44 -68 104q-17 60 -34 119zM555 532 q0 -34 61 -34q93 0 232 56t207 120q-74 37 -164 37q-83 0 -171 -33q-99 -37 -142 -96q-23 -32 -23 -50z" />
<glyph unicode="&#xe9;" horiz-adv-x="1165" d="M238 551q88 15 205 123q125 115 188 135q104 33 233 33q105 0 203 -35q133 -48 133 -133q0 -51 -47 -111q-281 -166 -592 -166q-57 0 -117 6q-51 -36 -51 -98q0 -64 52 -103q46 -36 112 -36q93 0 293 81t285 81q49 0 80 -23q-340 -299 -619 -299q-157 0 -246 73 q-96 79 -96 232q0 23 2 67.5t2 67.5q0 70 -20 105zM510 1102q0 62 18 94q31 55 199 250q101 117 264 164q-17 -60 -34 -119q-22 -62 -68 -105l-142 -118q-78 -74 -78 -160q0 -41 17 -92q-7 -5 -45 -47q-29 -33 -51 -33q-19 0 -41 20q-39 76 -39 146zM555 532q0 -34 61 -34 q93 0 232 56t207 120q-74 37 -164 37q-83 0 -171 -33q-99 -37 -142 -96q-23 -32 -23 -50z" />
<glyph unicode="&#xea;" horiz-adv-x="1169" d="M238 551q88 15 205 123q125 115 188 135q104 33 233 33q105 0 203 -35q133 -48 133 -133q0 -51 -47 -111q-281 -166 -592 -166q-57 0 -117 6q-51 -36 -51 -98q0 -64 52 -103q46 -36 112 -36q93 0 293 81t285 81q49 0 80 -23q-340 -299 -619 -299q-157 0 -246 73 q-96 79 -96 232q0 23 2 67.5t2 67.5q0 70 -20 105zM373 1081q35 53 178 227q114 138 160 240q12 6 26 6q52 0 86 -45q-6 -24 -6 -49q0 -82 68 -169q29 -37 127 -132q69 -67 69 -96q-10 -17 -20 -57q-91 32 -172 114q-67 79 -135 158l-51 -10q-101 -151 -113 -167 q-78 -103 -143 -136q-35 37 -47 53q-25 34 -27 63zM555 532q0 -34 61 -34q93 0 232 56t207 120q-74 37 -164 37q-83 0 -171 -33q-99 -37 -142 -96q-23 -32 -23 -50z" />
<glyph unicode="&#xeb;" horiz-adv-x="1165" d="M238 551q88 15 205 123q125 115 188 135q104 33 233 33q105 0 203 -35q133 -48 133 -133q0 -51 -47 -111q-281 -166 -592 -166q-57 0 -117 6q-51 -36 -51 -98q0 -64 52 -103q46 -36 112 -36q93 0 293 81t285 81q49 0 80 -23q-340 -299 -619 -299q-157 0 -246 73 q-96 79 -96 232q0 23 2 67.5t2 67.5q0 70 -20 105zM465 1159q0 41 46 78q43 35 85 35q58 0 80 -29q0 -41 -31 -101q-47 -91 -49 -95q-16 -11 -30 -11q-26 0 -63.5 47t-37.5 76zM555 532q0 -34 61 -34q93 0 232 56t207 120q-74 37 -164 37q-83 0 -171 -33q-99 -37 -142 -96 q-23 -32 -23 -50zM886 1119q0 54 34 102q38 53 90 53q12 0 25 -4q14 -43 14 -84q0 -96 -76 -150q-8 -2 -15 -2q-24 0 -71 64q-1 10 -1 21z" />
<glyph unicode="&#xec;" horiz-adv-x="743" d="M258 133q0 109 65 281q80 210 93 276q33 -12 86 -74q-5 -66 -60 -206q-52 -132 -52 -205q0 -70 73 -70q55 0 155 33q77 28 154 55q19 -24 19 -53q0 -35 -31 -82q-199 -119 -348 -119q-154 0 -154 164zM268 1618q163 -47 264 -164q168 -195 199 -250q18 -32 18 -94 q0 -49 -18 -100q-23 -66 -62 -66q-22 0 -51 33q-38 42 -45 47q17 51 17 92q0 85 -78 160q-71 60 -142 119q-47 44 -68 104q-17 60 -34 119z" />
<glyph unicode="&#xed;" horiz-adv-x="743" d="M258 133q0 109 65 281q80 210 93 276q33 -12 86 -74q-5 -66 -60 -206q-52 -132 -52 -205q0 -70 73 -70q55 0 155 33q77 28 154 55q19 -24 19 -53q0 -35 -31 -82q-199 -119 -348 -119q-154 0 -154 164zM283 1102q0 62 18 94q31 55 199 250q101 117 264 164 q-17 -60 -34 -119q-22 -62 -68 -105l-142 -118q-78 -74 -78 -160q0 -41 17 -92q-7 -5 -45 -47q-29 -33 -51 -33q-19 0 -41 20q-39 76 -39 146z" />
<glyph unicode="&#xee;" horiz-adv-x="805" d="M150 1081q35 53 178 227q114 138 160 240q12 6 26 6q52 0 86 -45q-6 -24 -6 -49q0 -82 68 -169q29 -37 127 -132q69 -67 69 -96q-10 -17 -20 -57q-91 32 -172 114q-67 79 -135 158l-51 -10q-101 -151 -113 -167q-78 -103 -143 -136q-35 37 -47 53q-25 34 -27 63zM258 133 q0 109 65 281q80 210 93 276q33 -12 86 -74q-5 -66 -60 -206q-52 -132 -52 -205q0 -70 73 -70q55 0 155 33q77 28 154 55q19 -24 19 -53q0 -35 -31 -82q-199 -119 -348 -119q-154 0 -154 164z" />
<glyph unicode="&#xef;" horiz-adv-x="772" d="M237 1159q0 41 46 78q43 35 85 35q58 0 80 -29q0 -41 -31 -101q-47 -91 -49 -95q-16 -11 -30 -11q-26 0 -63.5 47t-37.5 76zM258 133q0 109 65 281q80 210 93 276q33 -12 86 -74q-5 -66 -60 -206q-52 -132 -52 -205q0 -70 73 -70q55 0 155 33q77 28 154 55q19 -24 19 -53 q0 -35 -31 -82q-199 -119 -348 -119q-154 0 -154 164zM658 1119q0 54 34 102q38 53 90 53q12 0 25 -4q14 -43 14 -84q0 -96 -76 -150q-8 -2 -15 -2q-24 0 -71 64q-1 10 -1 21z" />
<glyph unicode="&#xf0;" />
<glyph unicode="&#xf1;" horiz-adv-x="1073" d="M111 203q0 72 24.5 245t24.5 238q0 21 -2 39q86 -23 135 -86q0 -8 -2 -32q-1 -20 -1 -32q0 -29 15 -47q132 185 172 224q110 108 252 108q163 0 245 -164q64 -127 64 -309q0 -321 -180 -584q-14 -6 -26 -6q-36 0 -73 51q-34 48 -34 86q0 84 129 175q35 114 35 276 q0 135 -22 199q-36 108 -142 108q-153 0 -266 -179q-60 -96 -146 -334q-65 -179 -102 -179q-100 0 -100 203zM129 1232q0 33 12 62q105 104 215 142q42 15 252 54l86 -86l13 -172q40 14 176 116q110 84 204 81h13q45 -23 45 -80q0 -25 -21 -105q-15 2 -29 2 q-97 0 -217 -113.5t-206 -113.5q-19 0 -39 4q-48 31 -53 141q-5 121 -33 154q-158 -63 -190 -79q-110 -53 -167 -117q-61 36 -61 110z" />
<glyph unicode="&#xf2;" horiz-adv-x="971" d="M195 178q0 234 174 408q0 110 91 187q87 73 199 73q146 0 254.5 -105.5t108.5 -251.5q0 -201 -157 -352t-359 -151q-191 0 -309 145q-2 24 -2 47zM368 187l1 -19q143 0 212 14q114 23 187 94q109 107 109 230q0 75 -52 125.5t-127 50.5q-55 0 -96 -35q29 -49 29 -90 q0 -60 -70 -121q-65 -53 -129 -106q-68 -67 -64 -143zM418 1618q163 -47 264 -164q168 -195 199 -250q18 -32 18 -94q0 -49 -18 -100q-23 -66 -62 -66q-22 0 -51 33q-38 42 -45 47q17 51 17 92q0 85 -78 160q-71 60 -142 119q-47 44 -68 104q-17 60 -34 119z" />
<glyph unicode="&#xf3;" horiz-adv-x="965" d="M195 178q0 234 174 408q0 110 91 187q87 73 199 73q146 0 254.5 -105.5t108.5 -251.5q0 -201 -157 -352t-359 -151q-191 0 -309 145q-2 24 -2 47zM368 187l1 -19q143 0 212 14q114 23 187 94q109 107 109 230q0 75 -52 125.5t-127 50.5q-55 0 -96 -35q29 -49 29 -90 q0 -60 -70 -121q-65 -53 -129 -106q-68 -67 -64 -143zM432 1102q0 62 18 94q31 55 199 250q101 117 264 164q-17 -60 -34 -119q-22 -62 -68 -105l-142 -118q-78 -74 -78 -160q0 -41 17 -92q-7 -5 -45 -47q-29 -33 -51 -33q-19 0 -41 20q-39 76 -39 146z" />
<glyph unicode="&#xf4;" horiz-adv-x="981" d="M195 178q0 234 174 408q0 110 91 187q87 73 199 73q146 0 254.5 -105.5t108.5 -251.5q0 -201 -157 -352t-359 -151q-191 0 -309 145q-2 24 -2 47zM295 1081q35 53 178 227q114 138 160 240q12 6 26 6q52 0 86 -45q-6 -24 -6 -49q0 -82 68 -169q29 -37 127 -132 q69 -67 69 -96q-10 -17 -20 -57q-91 32 -172 114q-67 79 -135 158l-51 -10q-101 -151 -113 -167q-78 -103 -143 -136q-35 37 -47 53q-25 34 -27 63zM368 187l1 -19q143 0 212 14q114 23 187 94q109 107 109 230q0 75 -52 125.5t-127 50.5q-55 0 -96 -35q29 -49 29 -90 q0 -60 -70 -121q-65 -53 -129 -106q-68 -67 -64 -143z" />
<glyph unicode="&#xf5;" horiz-adv-x="1094" d="M109 1209q0 33 12 62q105 104 215 142q42 15 252 54l86 -86l13 -172q40 14 176 116q110 84 204 81h13q45 -23 45 -80q0 -25 -21 -105q-15 2 -29 2q-97 0 -217 -113.5t-206 -113.5q-19 0 -39 4q-48 31 -53 141q-5 121 -33 154q-158 -63 -190 -79q-110 -53 -167 -117 q-61 36 -61 110zM195 178q0 234 174 408q0 110 91 187q87 73 199 73q146 0 254.5 -105.5t108.5 -251.5q0 -201 -157 -352t-359 -151q-191 0 -309 145q-2 24 -2 47zM368 187l1 -19q143 0 212 14q114 23 187 94q109 107 109 230q0 75 -52 125.5t-127 50.5q-55 0 -96 -35 q29 -49 29 -90q0 -60 -70 -121q-65 -53 -129 -106q-68 -67 -64 -143z" />
<glyph unicode="&#xf6;" horiz-adv-x="989" d="M195 178q0 234 174 408q0 110 91 187q87 73 199 73q146 0 254.5 -105.5t108.5 -251.5q0 -201 -157 -352t-359 -151q-191 0 -309 145q-2 24 -2 47zM368 187l1 -19q143 0 212 14q114 23 187 94q109 107 109 230q0 75 -52 125.5t-127 50.5q-55 0 -96 -35q29 -49 29 -90 q0 -60 -70 -121q-65 -53 -129 -106q-68 -67 -64 -143zM387 1159q0 41 46 78q43 35 85 35q58 0 80 -29q0 -41 -31 -101q-47 -91 -49 -95q-16 -11 -30 -11q-26 0 -63.5 47t-37.5 76zM808 1119q0 54 34 102q38 53 90 53q12 0 25 -4q14 -43 14 -84q0 -96 -76 -150q-8 -2 -15 -2 q-24 0 -71 64q-1 10 -1 21z" />
<glyph unicode="&#xf9;" horiz-adv-x="831" d="M164 227q0 71 20 154l86 356q13 4 25 4q22 0 53 -30q23 -23 45 -47q-32 -109 -65 -217q-39 -144 -39 -216q0 -105 66 -105q79 0 230 207q95 132 177 281q18 15 37 15q25 0 50 -33q18 -28 36 -55q-133 -250 -133 -346q0 -39 11 -50q6 -7 70 -44q50 -29 50 -56 q0 -29 -38 -60.5t-69 -31.5q-84 0 -149 219q-63 -58 -125 -116q-82 -66 -150 -66q-93 0 -144 75q-44 65 -44 162zM334 1618q163 -47 264 -164q168 -195 199 -250q18 -32 18 -94q0 -49 -18 -100q-23 -66 -62 -66q-22 0 -51 33q-38 42 -45 47q17 51 17 92q0 85 -78 160 q-71 60 -142 119q-47 44 -68 104q-17 60 -34 119z" />
<glyph unicode="&#xfa;" horiz-adv-x="831" d="M164 227q0 71 20 154l86 356q13 4 25 4q22 0 53 -30q23 -23 45 -47q-32 -109 -65 -217q-39 -144 -39 -216q0 -105 66 -105q79 0 230 207q95 132 177 281q18 15 37 15q25 0 50 -33q18 -28 36 -55q-133 -250 -133 -346q0 -39 11 -50q6 -7 70 -44q50 -29 50 -56 q0 -29 -38 -60.5t-69 -31.5q-84 0 -149 219q-63 -58 -125 -116q-82 -66 -150 -66q-93 0 -144 75q-44 65 -44 162zM349 1102q0 62 18 94q31 55 199 250q101 117 264 164q-17 -60 -34 -119q-22 -62 -68 -105l-142 -118q-78 -74 -78 -160q0 -41 17 -92q-7 -5 -45 -47 q-29 -33 -51 -33q-19 0 -41 20q-39 76 -39 146z" />
<glyph unicode="&#xfb;" horiz-adv-x="864" d="M164 227q0 71 20 154l86 356q13 4 25 4q22 0 53 -30q23 -23 45 -47q-32 -109 -65 -217q-39 -144 -39 -216q0 -105 66 -105q79 0 230 207q95 132 177 281q18 15 37 15q25 0 50 -33q18 -28 36 -55q-133 -250 -133 -346q0 -39 11 -50q6 -7 70 -44q50 -29 50 -56 q0 -29 -38 -60.5t-69 -31.5q-84 0 -149 219q-63 -58 -125 -116q-82 -66 -150 -66q-93 0 -144 75q-44 65 -44 162zM211 1081q35 53 178 227q114 138 160 240q12 6 26 6q52 0 86 -45q-6 -24 -6 -49q0 -82 68 -169q29 -37 127 -132q69 -67 69 -96q-10 -17 -20 -57 q-91 32 -172 114q-67 79 -135 158l-51 -10q-101 -151 -113 -167q-78 -103 -143 -136q-35 37 -47 53q-25 34 -27 63z" />
<glyph unicode="&#xfc;" horiz-adv-x="838" d="M164 227q0 71 20 154l86 356q13 4 25 4q22 0 53 -30q23 -23 45 -47q-32 -109 -65 -217q-39 -144 -39 -216q0 -105 66 -105q79 0 230 207q95 132 177 281q18 15 37 15q25 0 50 -33q18 -28 36 -55q-133 -250 -133 -346q0 -39 11 -50q6 -7 70 -44q50 -29 50 -56 q0 -29 -38 -60.5t-69 -31.5q-84 0 -149 219q-63 -58 -125 -116q-82 -66 -150 -66q-93 0 -144 75q-44 65 -44 162zM303 1159q0 41 46 78q43 35 85 35q58 0 80 -29q0 -41 -31 -101q-47 -91 -49 -95q-16 -11 -30 -11q-26 0 -63.5 47t-37.5 76zM724 1119q0 54 34 102 q38 53 90 53q12 0 25 -4q14 -43 14 -84q0 -96 -76 -150q-8 -2 -15 -2q-24 0 -71 64q-1 10 -1 21z" />
<glyph unicode="&#xfd;" horiz-adv-x="1065" d="M225 -356q99 -29 203 -29q420 0 502 500q-187 -135 -342 -135q-258 0 -258 276q0 94 31.5 249.5t31.5 172.5q0 7 -4 21.5t-4 21.5q0 35 33 60q30 22 67 22q64 0 64 -75q0 -79 -43 -232.5t-43 -231.5q0 -135 149 -135q142 0 336 154q4 73 4 159q0 74 -7 222.5t-7 220.5 q145 -72 145 -275q0 -413 -54 -632q-89 -365 -349 -494q-111 -55 -221 -55t-165 53q-50 50 -69 162zM459 1102q0 62 18 94q31 55 199 250q101 117 264 164q-17 -60 -34 -119q-22 -62 -68 -105l-142 -118q-78 -74 -78 -160q0 -41 17 -92q-7 -5 -45 -47q-29 -33 -51 -33 q-19 0 -41 20q-39 76 -39 146z" />
<glyph unicode="&#xfe;" />
<glyph unicode="&#xff;" horiz-adv-x="1061" d="M225 -356q99 -29 203 -29q420 0 502 500q-187 -135 -342 -135q-258 0 -258 276q0 94 31.5 249.5t31.5 172.5q0 7 -4 21.5t-4 21.5q0 35 33 60q30 22 67 22q64 0 64 -75q0 -79 -43 -232.5t-43 -231.5q0 -135 149 -135q142 0 336 154q4 73 4 159q0 74 -7 222.5t-7 220.5 q145 -72 145 -275q0 -413 -54 -632q-89 -365 -349 -494q-111 -55 -221 -55t-165 53q-50 50 -69 162zM415 1159q0 41 46 78q43 35 85 35q58 0 80 -29q0 -41 -31 -101q-47 -91 -49 -95q-16 -11 -30 -11q-26 0 -63.5 47t-37.5 76zM836 1119q0 54 34 102q38 53 90 53q12 0 25 -4 q14 -43 14 -84q0 -96 -76 -150q-8 -2 -15 -2q-24 0 -71 64q-1 10 -1 21z" />
<glyph unicode="&#x153;" horiz-adv-x="1802" d="M154 178q0 234 174 408q0 110 91 187q87 73 199 73q114 0 209.5 -68t130.5 -176q159 145 217 176q98 53 273 53q104 0 203 -35q133 -48 133 -132q0 -52 -47 -111q-281 -166 -592 -166q-58 0 -117 6q-51 -37 -51 -98q0 -65 51 -104q46 -35 113 -35q93 0 293 80.5t284 80.5 q49 0 80 -22q-338 -299 -618 -299q-107 0 -192 40q-101 47 -134 136q-162 -184 -393 -184q-189 0 -305 143q-2 24 -2 47zM327 187l1 -19q298 0 475 168q28 27 28 137v76q0 53 -61 95q-56 38 -111 38q-57 0 -98 -35q29 -49 29 -90q0 -60 -70 -121q-65 -53 -129 -106 q-68 -67 -64 -143zM1139 522q0 -35 61 -35q92 0 231.5 56.5t206.5 120.5q-73 36 -163 36q-84 0 -172 -33q-99 -36 -142 -96q-22 -30 -22 -49z" />
<glyph unicode="&#x178;" horiz-adv-x="1067" d="M170 1116q0 180 80 326q30 -7 56 -31q30 -26 30 -55q0 -12 -12 -189l-7 -90q0 -112 37 -208q50 -128 144 -128q79 0 211 138q92 96 165 268q100 235 128 283q14 4 28 4q84 0 107 -115q-159 -318 -221 -414q-136 -213 -320 -340q-5 -37 -40 -198q-26 -121 -26 -199 q0 -66 17 -119q19 1 40 25q27 33 34 37q41 -37 41 -78q0 -44 -56 -102q-62 -64 -71 -91h-10q-72 -3 -126 86q4 336 45 613q-130 78 -206 253q-68 157 -68 324zM374 1569q0 41 46 78q43 35 85 35q58 0 80 -29q0 -41 -31 -101q-47 -91 -49 -95q-16 -11 -30 -11q-26 0 -63.5 47 t-37.5 76zM795 1529q0 54 34 102q38 53 90 53q12 0 25 -4q14 -43 14 -84q0 -96 -76 -150q-8 -2 -15 -2q-24 0 -71 64q-1 10 -1 21z" />
<glyph unicode="&#x2c6;" horiz-adv-x="926" d="M164 1081q35 53 178 227q114 138 160 240q12 6 26 6q52 0 86 -45q-6 -24 -6 -49q0 -82 68 -169q29 -37 127 -132q69 -67 69 -96q-10 -17 -20 -57q-91 32 -172 114q-67 79 -135 158l-51 -10q-101 -151 -113 -167q-78 -103 -143 -136q-35 37 -47 53q-25 34 -27 63z" />
<glyph unicode="&#x2dc;" horiz-adv-x="1071" d="M86 1458q0 33 12 62q105 104 215 142q42 15 252 54l86 -86l13 -172q40 14 176 116q110 84 204 81h13q45 -23 45 -80q0 -25 -21 -105q-15 2 -29 2q-97 0 -217 -113.5t-206 -113.5q-19 0 -39 4q-48 31 -53 141q-5 121 -33 154q-158 -63 -190 -79q-110 -53 -167 -117 q-61 36 -61 110z" />
<glyph unicode="&#x2000;" horiz-adv-x="1223" />
<glyph unicode="&#x2001;" horiz-adv-x="2447" />
<glyph unicode="&#x2002;" horiz-adv-x="1223" />
<glyph unicode="&#x2003;" horiz-adv-x="2447" />
<glyph unicode="&#x2004;" horiz-adv-x="815" />
<glyph unicode="&#x2005;" horiz-adv-x="611" />
<glyph unicode="&#x2006;" horiz-adv-x="407" />
<glyph unicode="&#x2007;" horiz-adv-x="407" />
<glyph unicode="&#x2008;" horiz-adv-x="305" />
<glyph unicode="&#x2009;" horiz-adv-x="489" />
<glyph unicode="&#x200a;" horiz-adv-x="135" />
<glyph unicode="&#x2010;" horiz-adv-x="1018" d="M49 731q43 23 74 23q41 0 74 -35q17 -1 37 -1q98 0 288.5 41.5t286.5 41.5q143 0 235 -82v-62l-36 -49q-64 10 -134 10q-114 0 -338 -43t-337 -43q-33 0 -64 3q-39 26 -60 88q-2 8 -26 108z" />
<glyph unicode="&#x2011;" horiz-adv-x="1018" d="M49 731q43 23 74 23q41 0 74 -35q17 -1 37 -1q98 0 288.5 41.5t286.5 41.5q143 0 235 -82v-62l-36 -49q-64 10 -134 10q-114 0 -338 -43t-337 -43q-33 0 -64 3q-39 26 -60 88q-2 8 -26 108z" />
<glyph unicode="&#x2012;" horiz-adv-x="1018" d="M49 731q43 23 74 23q41 0 74 -35q17 -1 37 -1q98 0 288.5 41.5t286.5 41.5q143 0 235 -82v-62l-36 -49q-64 10 -134 10q-114 0 -338 -43t-337 -43q-33 0 -64 3q-39 26 -60 88q-2 8 -26 108z" />
<glyph unicode="&#x2013;" horiz-adv-x="1587" d="M70 776l12 49q154 -33 392 -33q119 0 356 15t356 15q310 0 395 -34q37 -15 37 -59v-76l-49 -37q-166 46 -393 46q-139 0 -434 -24q-321 -26 -588 -26q-45 0 -65 62q-9 51 -19 102z" />
<glyph unicode="&#x2014;" horiz-adv-x="2187" d="M107 667q0 13 2 27q11 13 10 41q-1 36 2 45q321 33 702 33q229 0 687.5 -16.5t687.5 -16.5q38 -72 38 -98q0 -12 -2 -25q-95 -62 -255 -62q-34 0 -102 3t-102 3q-16 0 -47.5 -2.5t-46.5 -2.5q-34 0 -103 10q-84 12 -105 14q-199 17 -433 17q-95 0 -649 -16q-14 6 -33 6 q-31 0 -92.5 -16.5t-93.5 -16.5q-65 0 -65 73z" />
<glyph unicode="&#x201c;" horiz-adv-x="1079" d="M307 1466q0 105 48 209q28 62 105.5 179.5t108.5 185.5q68 0 123 -111q-31 -100 -129 -283.5t-129 -281.5q14 -14 98 -12q-24 -100 -100 -100q-79 0 -121 149q-4 14 -4 65zM741 1493q0 63 27 131q28 61 55 123q85 207 213 268q74 -28 74 -49q0 -130 -126 -335 q-132 -217 -144 -328q-99 45 -99 190z" />
<glyph unicode="&#x201d;" horiz-adv-x="1077" d="M303 1966q0 21 74 49q128 -61 213 -268q28 -62 55 -123q27 -68 27 -131q0 -145 -99 -190q-12 112 -144 329q-126 206 -126 334zM721 1929q55 111 123 111q31 -68 108.5 -185.5t105.5 -179.5q48 -104 48 -209q0 -51 -4 -65q-41 -149 -121 -149q-76 0 -100 100q8 0 27 -1.5 t29 -1.5q27 0 42 15q-31 99 -129 282.5t-129 282.5z" />
<glyph unicode="&#x2022;" horiz-adv-x="621" d="M100 698q0 182 197 236q22 6 59 6q104 0 211 -80q51 -38 51 -135q0 -72 -14 -123q-20 -72 -103 -144q-86 -73 -159 -73q-67 0 -143 57q-47 36 -75 117q-24 70 -24 139z" />
<glyph unicode="&#x2026;" horiz-adv-x="2062" d="M101 95q0 54 34 102q38 53 90 53q13 0 25 -4q14 -43 14 -84q0 -96 -76 -150q-8 -2 -15 -2q-24 0 -71 64q-1 10 -1 21zM938 131q0 42 48 79q45 36 87 36q60 0 82 -31q0 -36 -33 -100q-44 -84 -49 -99q-16 -12 -31 -12q-22 0 -46 31q-29 36 -40 41q-18 28 -18 55zM1850 70 q0 54 34 102q38 53 90 53q13 0 25 -4q14 -43 14 -84q0 -43 -24 -93q-28 -58 -67 -58q-22 0 -71 63q-1 10 -1 21z" />
<glyph unicode="&#x202f;" horiz-adv-x="489" />
<glyph unicode="&#x2039;" horiz-adv-x="764" d="M94 608q0 25 4 51q74 112 279 260q217 157 291 252q51 -51 51 -116q0 -74 -196 -209q-225 -153 -265 -223q75 -59 198 -99q120 -39 225 -39q20 0 38 2q53 -34 53 -86q0 -12 -4 -24q-61 -23 -143 -23q-114 0 -427 84q-104 27 -104 170z" />
<glyph unicode="&#x203a;" horiz-adv-x="836" d="M158 1167q0 43 16 99q67 -87 194 -126q3 -1 232 -50q164 -35 213 -95q35 -43 35 -125q0 -30 -10 -108q-199 -270 -492 -381q-33 25 -33 76q0 41 21 84q207 86 405 307q-57 54 -218 90q-198 45 -246 67q-117 53 -117 162z" />
<glyph unicode="&#x205f;" horiz-adv-x="611" />
<glyph unicode="&#x20ac;" horiz-adv-x="1204" d="M92 688q0 29 8 57q7 3 68 3q25 0 31 10l6 6q-21 -34 -21 -56l2 -12q10 -14 28 -14q6 0 17.5 1t16.5 1q175 388 601 756q56 50 173 141q9 6 25 6q17 0 32 -24q17 -27 29 -31v-86q-380 -335 -382 -337q-223 -217 -294 -400l25 -1q130 -3 357 61q244 69 355 75 q35 -19 35 -72q0 -31 -10 -63q-508 -177 -848 -234q26 -3 82 -3q32 0 96 2t96 2q247 0 328 -148l-37 -37q-65 4 -120 4q-170 0 -359 -53q166 -101 369 -101t368 101q66 -13 66 -97q0 -34 -16 -63q-168 -113 -404 -113q-96 0 -334 39q-73 12 -158 110q-81 93 -130 93 q-31 0 -68 -18q-22 27 -23 83q-1 44 -2 89l136 73q-47 58 -93 116q-51 73 -51 134z" />
<glyph unicode="&#x2122;" horiz-adv-x="1833" d="M16 1466q31 63 135 105q87 28 173 55q32 -2 71 -2q80 0 241 13.5t241 13.5l46 -42q25 -25 25 -53q0 -32 -22 -65q-39 6 -82 6q-80 0 -200 -26q-184 -39 -198 -41q7 -39 7 -84q0 -87 -27 -223q-36 -177 -41 -222q-25 -20 -49 -20q-40 0 -65 41q-21 35 -21 77 q0 52 33.5 152.5t33.5 153.5q0 59 -30 112q-25 -4 -94 -29q-59 -22 -93 -22q-69 0 -84 100zM881 1180q0 53 32 102q36 54 76 201q40 143 84 205h6q26 2 70 -40t61 -42q23 0 47 32q103 -20 103 -143q0 -25 -5 -74.5t-5 -74.5q0 -58 18 -89q162 89 332 357q96 -26 133 -126 q19 -53 33 -201q13 -133 43 -189q1 -6 5 -24q3 -14 3 -23q0 -22 -21 -27q-67 30 -108 134q0 2 -51 173q-70 -22 -173 -152q-95 -120 -142 -120q-63 0 -121 93t-99 93q-20 0 -43 -12q-39 -58 -79 -115q-56 -71 -107 -71q-10 0 -23 2q-69 41 -69 131z" />
<glyph unicode="&#xe000;" horiz-adv-x="810" d="M0 0v810h810v-810h-810z" />
</font>
</defs>
</svg>
