<?xml version="1.0" encoding="UTF-8" standalone="no"?>
<!-- Created with Inkscape (http://www.inkscape.org/) -->

<svg
   xmlns:dc="http://purl.org/dc/elements/1.1/"
   xmlns:cc="http://creativecommons.org/ns#"
   xmlns:rdf="http://www.w3.org/1999/02/22-rdf-syntax-ns#"
   xmlns:svg="http://www.w3.org/2000/svg"
   xmlns="http://www.w3.org/2000/svg"
   xmlns:sodipodi="http://sodipodi.sourceforge.net/DTD/sodipodi-0.dtd"
   xmlns:inkscape="http://www.inkscape.org/namespaces/inkscape"
   width="77.906509"
   height="45.693523"
   id="svg3156"
   version="1.1"
   inkscape:version="0.48.4 r9939"
   sodipodi:docname="smiley.svg">
  <defs
     id="defs3158" />
  <sodipodi:namedview
     id="base"
     pagecolor="#ffffff"
     bordercolor="#666666"
     borderopacity="1.0"
     inkscape:pageopacity="0.0"
     inkscape:pageshadow="2"
     inkscape:zoom="0.35"
     inkscape:cx="339.66754"
     inkscape:cy="77.13248"
     inkscape:document-units="px"
     inkscape:current-layer="layer1"
     showgrid="false"
     inkscape:window-width="486"
     inkscape:window-height="415"
     inkscape:window-x="65"
     inkscape:window-y="607"
     inkscape:window-maximized="0"
     fit-margin-top="0"
     fit-margin-left="0"
     fit-margin-right="0"
     fit-margin-bottom="0" />
  <metadata
     id="metadata3161">
    <rdf:RDF>
      <cc:Work
         rdf:about="">
        <dc:format>image/svg+xml</dc:format>
        <dc:type
           rdf:resource="http://purl.org/dc/dcmitype/StillImage" />
        <dc:title></dc:title>
      </cc:Work>
    </rdf:RDF>
  </metadata>
  <g
     inkscape:label="Calque 1"
     inkscape:groupmode="layer"
     id="layer1"
     transform="translate(-35.332459,-563.80114)">
    <path
       style="color:#000000;fill:#000000;fill-opacity:1;fill-rule:nonzero;stroke:none;stroke-width:1.49881887;marker:none;visibility:visible;display:inline;overflow:visible;enable-background:accumulate"
       id="path3307"
       d="m 75.285489,580.6869 c -2.24098,-0.75652 -4.53512,-1.53604 -6.91773,-1.67112 -0.62123,-0.0352 -1.24439,0.0128 -1.86658,0.0192 -2.77383,0.30769 -5.26813,1.51874 -7.03892,3.72655 -1.39787,1.74284 -1.5249,2.5274 -2.36465,4.61669 -0.2066,0.97281 -0.49525,1.93175 -0.61983,2.91841 -0.49491,3.91969 0.1682,8.18633 2.51596,11.45008 0.516,0.71733 1.19121,1.30549 1.78682,1.95823 0.71813,0.48055 1.38525,1.04788 2.1544,1.44166 3.3739,1.7273 7.44871,1.68139 11.02727,0.69271 0.95618,-0.26417 1.86555,-0.67525 2.79832,-1.01288 0.85163,-0.47267 1.74315,-0.87968 2.55488,-1.418 2.86544,-1.9003 5.25924,-4.71343 6.40338,-7.98091 0.23962,-0.68433 0.3504,-1.40717 0.5256,-2.11076 0.43064,-3.46769 -0.66648,-6.73096 -2.72732,-9.51282 -0.39748,-0.53655 -0.85883,-1.02268 -1.28824,-1.53402 -2.81288,-2.88748 -5.47093,-3.53294 -9.31941,-3.95143 -1.53258,-0.0475 -2.96646,-0.60437 -4.46058,-0.83627 0,0 -0.0177,-0.0703 -0.0177,-0.0703 l 0,0 c 1.53314,-1.09064 2.65379,-1.71117 4.6105,-1.88264 0.62793,-10e-4 1.25773,-0.0539 1.88376,-0.005 3.75949,0.29218 7.07778,2.09915 9.65429,4.79795 0.50099,0.61152 1.04048,1.19343 1.50298,1.83456 1.95294,2.70727 3.27829,5.94953 3.31074,9.32466 0.008,0.87054 -0.14578,1.73505 -0.21866,2.60257 -0.65449,2.40566 -0.64371,2.96342 -1.91766,5.17287 -2.18867,3.79584 -5.55725,6.56157 -9.49353,8.4005 -2.84638,0.98983 -3.62612,1.45143 -6.6594,1.74157 -3.37142,0.32248 -6.87411,-0.14418 -9.87568,-1.79475 -0.9644,-0.53032 -1.79084,-1.2799 -2.68627,-1.91984 -0.72125,-0.83654 -1.54122,-1.59723 -2.16375,-2.50963 -2.65498,-3.89113 -3.41823,-8.91377 -2.77067,-13.5113 0.16281,-1.15592 0.51856,-2.27634 0.77784,-3.41451 1.09713,-2.55951 1.25048,-3.47735 3.06767,-5.58893 2.34521,-2.72516 5.57625,-4.13895 9.11829,-4.33133 0.73676,0.0417 1.47773,0.0361 2.21026,0.12528 2.5999,0.3163 5.10018,1.30296 7.36853,2.57859 0,0 -0.86488,1.65455 -0.86488,1.65455 z"
       inkscape:connector-curvature="0" />
    <path
       style="color:#000000;fill:#000000;fill-opacity:1;fill-rule:nonzero;stroke:none;stroke-width:1.49881887;marker:none;visibility:visible;display:inline;overflow:visible;enable-background:accumulate"
       id="path3311"
       d="m 42.050779,574.35796 c -1.22683,2.96205 -0.68937,6.26625 -0.30361,9.34393 0.76132,3.90327 1.67271,8.34714 4.81935,11.11134 0.39829,0.34987 0.87718,0.5956 1.31576,0.89341 2.37335,1.17805 4.86007,0.87169 7.33076,0.23268 1.47022,-0.25036 0.7853,-0.0403 2.06469,-0.59671 0,0 0.0353,0.0634 0.0353,0.0634 l 0,0 c -1.16997,0.81074 -0.59086,0.34945 -1.72062,1.40461 -2.33525,1.4545 -4.54367,2.65454 -7.42864,1.95128 -0.66468,-0.16203 -1.27618,-0.49352 -1.91427,-0.74028 -0.60047,-0.43505 -1.25561,-0.80322 -1.80139,-1.30516 -3.52572,-3.24254 -4.69194,-8.21638 -5.44046,-12.73921 -0.27691,-3.55511 -0.65249,-7.70316 1.78539,-10.64828 0,0 1.25772,1.02903 1.25772,1.02903 z"
       inkscape:connector-curvature="0" />
    <path
       style="color:#000000;fill:#000000;fill-opacity:1;fill-rule:nonzero;stroke:none;stroke-width:1.49881887;marker:none;visibility:visible;display:inline;overflow:visible;enable-background:accumulate"
       id="path3313"
       d="m 37.302719,568.41643 c 0.63849,1.14274 1.4746,2.19093 2.4743,3.03725 0.0784,0.0339 0.19392,0.17643 0.23523,0.10166 0.18599,-0.33662 -0.4103,-0.0506 -0.59814,-0.19708 -0.0637,-0.0497 0.0306,-0.15924 0.0577,-0.23532 0.17313,-0.48577 0.37178,-0.96213 0.54821,-1.44671 0.57015,-1.54804 1.15824,-3.19532 2.36233,-4.38112 0.22276,-0.21939 0.48257,-0.39765 0.72387,-0.59648 0.5356,-0.58072 1.26591,-0.58244 1.93145,-0.89749 0,0 0.0365,0.0627 0.0365,0.0627 l 0,0 c -0.1249,0.0889 -0.29448,0.13601 -0.37469,0.26665 -0.25517,0.41555 -0.12995,1.00542 -0.53831,1.36025 -0.64532,1.66229 -1.43453,3.26764 -1.97809,4.97032 -0.64984,1.79649 -1.59914,4.40044 -3.95081,2.63531 -1.10368,-1.12478 -2.16793,-2.31523 -2.89981,-3.72296 0,0 1.97025,-0.95697 1.97025,-0.95697 z"
       inkscape:connector-curvature="0" />
    <path
       style="color:#000000;fill:#000000;fill-opacity:1;fill-rule:nonzero;stroke:none;stroke-width:1.49881887;marker:none;visibility:visible;display:inline;overflow:visible;enable-background:accumulate"
       id="path3315"
       d="m 41.787129,572.97762 c 1.12824,-1.44767 2.56271,-2.6405 4.01302,-3.75405 1.14099,-0.86938 2.05477,-1.2497 3.42484,-0.70544 0.83739,0.51714 0.64819,0.84808 0.29259,1.6119 0,0 -0.0705,-0.017 -0.0705,-0.017 l 0,0 c -0.0144,-0.53109 -0.133,-0.38239 -0.41762,-0.16994 -0.54293,0.45437 -1.07057,0.92196 -1.70868,1.26119 -1.34986,1.03613 -2.58209,2.20357 -3.8639,3.31935 0,0 -1.66973,-1.54605 -1.66973,-1.54605 z"
       inkscape:connector-curvature="0" />
    <path
       style="color:#000000;fill:#000000;fill-opacity:1;fill-rule:nonzero;stroke:none;stroke-width:1.49881887;marker:none;visibility:visible;display:inline;overflow:visible;enable-background:accumulate"
       id="path3317"
       d="m 43.165689,574.91906 c 1.26022,1.20961 2.53385,2.41366 3.7352,3.68218 0.56754,0.60892 0.94533,1.34936 1.44595,2.01068 0,0 -0.017,0.0705 -0.017,0.0705 l 0,0 c -1.24351,0.40348 -1.8442,0.328 -2.96211,-0.39227 -1.38645,-1.08954 -2.57605,-2.39749 -3.80705,-3.65542 0,0 1.60501,-1.7157 1.60501,-1.7157 z"
       inkscape:connector-curvature="0" />
    <path
       style="color:#000000;fill:#000000;fill-opacity:1;fill-rule:nonzero;stroke:none;stroke-width:1.49881887;marker:none;visibility:visible;display:inline;overflow:visible;enable-background:accumulate"
       id="path3319"
       d="m 88.680979,596.64524 c 1.87844,-0.28881 3.79509,-0.54666 5.54508,-1.33505 0.48327,-0.21771 0.9371,-0.49563 1.40565,-0.74344 2.42233,-1.65347 4.389661,-3.9707 5.282861,-6.80109 0.13989,-0.44331 0.20311,-0.90726 0.30467,-1.36088 0.39277,-1.47958 -0.30496,-2.85141 -0.42497,-4.28625 0.0589,-0.44663 0.18023,-0.87543 0.28248,-1.31263 0,0 0.72728,-0.1316 0.72728,-0.1316 l 0,0 c 0.31312,-0.30599 0.87616,-0.0292 1.18311,0.15551 1.60275,1.66828 1.53078,4.14823 1.26478,6.30388 -0.15346,0.60739 -0.25844,1.22913 -0.46038,1.82218 -1.19374,3.50568 -3.7231,6.32939 -6.841161,8.25089 -0.59524,0.28354 -1.17336,0.60623 -1.78571,0.85061 -2.04767,0.81719 -4.2926,1.11144 -6.48369,1.08952 0,0 0,-2.50165 0,-2.50165 z"
       inkscape:connector-curvature="0" />
    <path
       style="color:#000000;fill:#000000;fill-opacity:1;fill-rule:nonzero;stroke:none;stroke-width:1.49881887;marker:none;visibility:visible;display:inline;overflow:visible;enable-background:accumulate"
       id="path3321"
       d="m 101.6488,583.73059 c -1.801251,-1.11349 -3.230601,-2.69799 -4.593481,-4.29416 -0.19184,-0.25106 -0.38578,-0.50054 -0.57553,-0.75319 -0.22927,-0.30526 -0.46484,-0.59818 -0.63342,-0.94217 -0.053,-0.10817 -0.2218,-0.26059 -0.12911,-0.33753 1.83578,-1.52397 1.44132,-1.57239 2.46685,-0.75868 1.65409,1.40182 3.130771,2.99169 4.732891,4.45117 0.54041,0.3488 1.17376,1.02087 1.88225,1.05709 0.0396,0.002 0.0815,-0.0956 0.0447,-0.11015 -0.29844,-0.1174 -0.45795,-0.0394 -0.72687,0.0313 -0.0467,-1.88409 -0.0802,-3.77175 -0.12352,-5.65714 0.11192,-1.05368 -0.46408,-3.44288 0.42423,-4.26968 0.26704,-0.24855 0.61025,-0.39994 0.91538,-0.5999 1.29253,0.93226 1.00246,0.79253 0.65969,2.05249 0,0 -0.0714,0.0126 -0.0714,0.0126 l 0,0 c -0.11759,-0.15247 -0.20955,-0.32875 -0.35279,-0.45745 -0.0996,-0.0895 -1.4612,-0.65732 0.34911,0.19913 0.22607,-0.17439 0.42965,-0.38266 0.6782,-0.52316 0.13602,-0.0769 0.14045,0.14847 0.15845,0.54239 0.0124,0.27151 0.0136,0.54341 0.0186,0.81516 0.0432,2.3636 -0.0197,-0.45551 0.042,2.16355 0.0521,2.26736 0.2818,4.60751 -0.31751,6.81949 -0.23279,0.32139 -0.38123,0.72562 -0.69837,0.96416 -1.55382,1.1687 -3.24194,-0.5446 -4.3236,-1.47827 -1.536501,-1.43665 -2.984161,-2.9681 -4.588081,-4.33002 -0.12806,-0.0947 -0.45573,-0.14186 -0.38417,-0.28416 0.30749,-0.61146 0.8904,-1.03999 1.31857,-1.57395 0.013,-0.0162 -0.0215,-0.0766 -0.007,-0.0619 0.13201,0.13186 0.54828,0.72716 0.59545,0.7897 0.16837,0.22326 0.34287,0.44184 0.51429,0.66275 1.188671,1.42897 2.457671,2.79875 3.878811,4.00106 0,0 -1.1547,1.86949 -1.1547,1.86949 z"
       inkscape:connector-curvature="0" />
    <path
       style="color:#000000;fill:#000000;fill-opacity:1;fill-rule:nonzero;stroke:none;stroke-width:1.49881887;marker:none;visibility:visible;display:inline;overflow:visible;enable-background:accumulate"
       id="path3323"
       d="m 103.6503,582.8449 c 1.40481,-0.51334 2.72709,-1.21662 4.13502,-1.72054 0.6317,-0.17015 1.3036,-0.21415 1.86146,0.20161 0.23982,0.17874 0.39955,0.44573 0.61277,0.65548 0,0 -0.0123,0.0715 -0.0123,0.0715 l 0,0 c -0.6074,0.32811 -0.99997,0.98637 -1.7538,1.07313 -1.46006,0.50917 -2.81791,1.27479 -4.30219,1.72053 0,0 -0.541,-2.00171 -0.541,-2.00171 z"
       inkscape:connector-curvature="0" />
    <path
       style="color:#000000;fill:#000000;fill-opacity:1;fill-rule:nonzero;stroke:none;stroke-width:1.49881887;marker:none;visibility:visible;display:inline;overflow:visible;enable-background:accumulate"
       id="path3325"
       d="m 105.5786,585.53054 c 1.93201,0.0351 3.77149,0.67257 5.47086,1.55073 1.00652,0.48014 1.61063,1.33614 2.18951,2.24211 0,0 -0.0139,0.0712 -0.0139,0.0712 l 0,0 c -1.02825,0.53451 -2.13538,0.56813 -3.23174,0.1851 -1.47293,-0.48314 -2.90876,-1.13791 -4.48213,-1.21881 0,0 0.0674,-2.83034 0.0674,-2.83034 z"
       inkscape:connector-curvature="0" />
    <path
       style="color:#000000;fill:#000000;fill-opacity:1;fill-rule:nonzero;stroke:none;stroke-width:1.49881887;marker:none;visibility:visible;display:inline;overflow:visible;enable-background:accumulate"
       id="path3327"
       d="m 55.743319,582.51686 c 0.45522,1.6786 1.02454,3.40996 2.14973,4.77429 0.28592,0.34671 0.63606,0.63503 0.95409,0.95254 2.51823,1.8183 5.09956,1.09323 7.90456,0.55408 2.15116,-0.53878 4.48984,-0.67811 6.50148,-1.65908 0,0 0.0338,0.0642 0.0338,0.0642 l 0,0 c -1.99227,1.12746 -3.9971,2.22464 -6.08269,3.17647 -0.50036,0.1877 -0.98817,0.41308 -1.50109,0.5631 -2.22699,0.65137 -4.75059,0.73426 -6.85506,-0.37747 -0.51024,-0.26955 -0.94344,-0.66479 -1.41515,-0.99718 -0.37328,-0.42082 -0.78376,-0.81136 -1.11982,-1.26245 -1.227,-1.64695 -1.97179,-3.692 -1.87634,-5.75115 0,0 1.3065,-0.0373 1.3065,-0.0373 z"
       inkscape:connector-curvature="0" />
    <path
       style="color:#000000;fill:#000000;fill-opacity:1;fill-rule:nonzero;stroke:none;stroke-width:1.49881887;marker:none;visibility:visible;display:inline;overflow:visible;enable-background:accumulate"
       id="path3329"
       d="m 70.796449,581.2463 c -0.87914,0.88722 -2.20749,1.66985 -3.51077,1.27181 -0.2994,-0.0914 -0.55479,-0.29017 -0.83218,-0.43526 -0.20085,-0.24583 -0.4519,-0.45808 -0.60255,-0.73751 -0.59988,-1.1127 -0.28096,-2.52685 0.53616,-3.43331 0.20109,-0.22307 0.45901,-0.38744 0.68852,-0.58116 1.75242,-0.96873 3.66991,-0.67752 5.43693,0.0707 1.73251,1.11353 2.11271,2.90418 0.78727,4.56065 -0.22653,0.28311 -0.52372,0.50157 -0.78558,0.75235 -1.44402,0.99004 -3.29312,1.56586 -4.99486,0.84958 -0.32067,-0.13497 -0.59947,-0.35333 -0.8992,-0.53 -1.02989,-0.92989 -2.00091,-2.66982 -0.98056,-3.99623 0.19456,-0.25293 0.49817,-0.39893 0.74725,-0.59839 1.43158,-0.48443 2.68075,0.3003 3.99548,0.76009 0,0 -0.008,0.0721 -0.008,0.0721 l 0,0 c -0.69528,0.0819 -2.16328,0.25601 -2.45148,1.03338 0.32782,-0.2098 -0.30176,-0.3533 0.21816,0.4374 0.74901,0.72884 1.86784,0.46558 2.70712,0.0269 0.56737,-0.37941 0.26323,-0.15461 0.71433,-0.5256 0.35219,-0.28964 0.46163,-0.40693 0.0115,-0.75854 -0.95956,-0.47835 -2.07313,-0.69523 -3.11674,-0.35394 -0.47647,0.27076 -0.81465,0.70781 -0.83746,1.27378 0.27849,0.86939 1.71916,0.0303 2.16295,-0.25707 0,0 1.01383,1.09833 1.01383,1.09833 z"
       inkscape:connector-curvature="0" />
    <path
       style="color:#000000;fill:#000000;fill-opacity:1;fill-rule:nonzero;stroke:none;stroke-width:1.49881887;marker:none;visibility:visible;display:inline;overflow:visible;enable-background:accumulate"
       id="path3331"
       d="m 80.654899,583.79953 c -0.60158,0.0141 -2.26363,0.13637 -2.60893,-0.50782 -0.19221,-0.35859 -0.17455,-0.79478 -0.26184,-1.19217 0.16069,-0.23256 0.28926,-0.49095 0.48205,-0.69767 0.52952,-0.56775 1.59462,-0.99224 2.35578,-1.04695 0.23795,-0.0171 0.47654,0.0236 0.7148,0.0355 0.25488,0.12299 0.5558,0.17797 0.76463,0.36897 1.05818,0.96778 0.59126,2.44364 -0.2386,3.36099 -0.20697,0.22878 -0.46179,0.4092 -0.69268,0.61381 -1.87905,1.13809 -3.31044,1.12608 -5.14763,-0.0341 -0.19877,-0.24425 -0.45582,-0.45092 -0.59633,-0.73276 -0.61301,-1.22958 -0.0506,-2.64534 0.97015,-3.45316 0.23569,-0.18651 0.51688,-0.30689 0.77531,-0.46033 0.31998,-0.0614 0.63455,-0.20121 0.95995,-0.18436 1.0309,0.0534 1.83597,0.77383 2.11591,1.74485 0.15288,0.53028 0.0617,1.01124 0.0125,1.54025 -0.062,0.21139 -0.124,0.42278 -0.186,0.63416 0,0 -0.0714,0.0131 -0.0714,0.0131 l 0,0 c -0.12732,-0.14468 -0.25465,-0.28936 -0.38197,-0.43405 -0.50474,-0.42846 -0.32668,-0.32339 -0.89311,-0.62915 -0.10121,-0.0546 -0.2008,-0.11457 -0.30902,-0.15351 -0.0319,-0.0115 -0.11659,0.0363 -0.10168,0.006 0.11788,-0.24122 0.12956,0.14909 0.10515,-0.10544 -0.17919,0.0158 -0.32684,0.23196 -0.45983,0.23752 -0.12202,0.005 -0.14871,-0.20244 -0.25434,-0.26374 -0.0307,-0.0178 -0.0708,0.006 -0.10625,0.009 0.48488,0.56576 1.47045,0.53814 2.12398,0.37685 0.10663,-0.0574 0.73249,-0.51749 0.79936,-0.53384 0.18668,-0.0456 0.37284,0.30259 0.57138,0.12414 -0.3596,-0.18444 -0.8371,0.10246 -1.15827,0.268 -0.0684,0.0353 -0.13803,0.15409 -0.20228,0.11163 -0.0634,-0.0419 0.0192,-0.15085 0.0288,-0.22627 -0.35303,-0.79682 -0.0921,-0.74339 -0.62568,-0.89611 -0.0523,-0.015 0.0994,0.0477 0.15301,0.0569 0.46828,0.0806 0.94867,0.0223 1.41708,0.10479 0,0 -0.0541,1.94551 -0.0541,1.94551 z"
       inkscape:connector-curvature="0" />
    <path
       style="color:#000000;fill:#000000;fill-opacity:1;fill-rule:nonzero;stroke:none;stroke-width:1.49881887;marker:none;visibility:visible;display:inline;overflow:visible;enable-background:accumulate"
       id="path3333"
       d="m 72.619829,589.29514 c 1.00985,1.97622 2.53084,3.34872 4.3631,4.54845 2.71104,1.31071 4.42187,0.40066 6.8785,-0.85344 0.71107,-0.30996 1.45289,-0.53462 2.18292,-0.79281 0,0 0.0583,0.0432 0.0583,0.0432 l 0,0 c -0.12382,0.96409 -0.46465,1.72799 -1.12673,2.47359 -0.38774,0.29784 -0.74489,0.64046 -1.16323,0.89354 -1.96555,1.18905 -4.38255,1.57018 -6.58536,0.86364 -0.53807,-0.17258 -1.03092,-0.46302 -1.54638,-0.69454 -0.45263,-0.31183 -0.927,-0.59423 -1.35787,-0.93549 -1.64518,-1.30301 -3.06332,-3.03376 -3.63476,-5.07499 0,0 1.93151,-0.4711 1.93151,-0.4711 z"
       inkscape:connector-curvature="0" />
    <path
       style="color:#000000;fill:#000000;fill-opacity:1;fill-rule:nonzero;stroke:none;stroke-width:1.49881887;marker:none;visibility:visible;display:inline;overflow:visible;enable-background:accumulate"
       id="path3337"
       d="m 58.546739,602.00244 c -1.05797,-1.45358 -1.83396,-3.21755 -1.87805,-5.0433 -0.009,-0.37943 0.0603,-0.7567 0.0904,-1.13505 0.13205,-0.35575 0.20211,-0.74116 0.39614,-1.06728 1.2976,-2.18099 4.15827,-2.12267 6.34571,-2.04277 3.41848,0.49461 6.64577,2.10959 8.90393,4.77158 0.42687,0.50322 0.75829,1.08018 1.13745,1.62027 0.23471,0.57798 0.54013,1.13208 0.70413,1.73397 0.58999,2.1652 0.008,4.33852 -1.50882,5.96832 -0.30748,0.33048 -0.68021,0.59361 -1.02032,0.89041 -1.43629,0.96706 -3.61929,2.03374 -4.72538,0.0553 0,0 0.0339,-0.0641 0.0339,-0.0641 l 0,0 c 0.40911,-0.24863 0.62867,-0.63849 1.01898,-0.92335 0.60814,-0.44383 1.34395,-0.66282 1.95251,-1.10716 1.89556,-1.51318 2.31037,-2.82182 1.44345,-5.17067 -0.2656,-0.43986 -0.48906,-0.9081 -0.79679,-1.31959 -1.75179,-2.34242 -4.43271,-3.72896 -7.25616,-4.27637 -1.13682,-0.0805 -3.45173,-0.31611 -4.34088,0.70059 -0.12373,0.14147 -0.19309,0.3225 -0.28963,0.48375 -0.35627,1.80243 0.0694,3.60607 0.80002,5.27155 0,0 -1.01065,0.65394 -1.01065,0.65394 z"
       inkscape:connector-curvature="0" />
  </g>
</svg>
